<?xml version="1.0" encoding="utf-8"?>
<!-- Generator: Adobe Illustrator 24.1.2, SVG Export Plug-In . SVG Version: 6.00 Build 0)  -->
<svg version="1.1" id="Layer_1" xmlns="http://www.w3.org/2000/svg" xmlns:xlink="http://www.w3.org/1999/xlink" x="0px" y="0px"
	 viewBox="0 0 1500 1200" style="enable-background:new 0 0 1500 1200;" xml:space="preserve">
<style type="text/css">
	.st0{fill-rule:evenodd;clip-rule:evenodd;fill:#DDEAFE;}
	.st1{fill-rule:evenodd;clip-rule:evenodd;fill:#1C0D04;}
	.st2{fill-rule:evenodd;clip-rule:evenodd;fill:#64291F;}
	.st3{fill-rule:evenodd;clip-rule:evenodd;fill:#471610;}
	.st4{fill-rule:evenodd;clip-rule:evenodd;fill:#E47C6B;}
	.st5{fill-rule:evenodd;clip-rule:evenodd;fill:#F9A887;}
	.st6{fill-rule:evenodd;clip-rule:evenodd;fill:#DB4342;}
	.st7{fill-rule:evenodd;clip-rule:evenodd;fill:#F16464;}
	.st8{fill-rule:evenodd;clip-rule:evenodd;fill:#FFFFFF;}
	.st9{fill-rule:evenodd;clip-rule:evenodd;fill:#BDBBBD;}
	.st10{fill-rule:evenodd;clip-rule:evenodd;fill:#BAC6C9;}
	.st11{fill-rule:evenodd;clip-rule:evenodd;fill:#CFD6D8;}
	.st12{fill-rule:evenodd;clip-rule:evenodd;fill:#E2E1E3;}
	.st13{fill-rule:evenodd;clip-rule:evenodd;fill:#BAC4C6;}
	.st14{fill-rule:evenodd;clip-rule:evenodd;fill:#7A423C;}
	.st15{fill-rule:evenodd;clip-rule:evenodd;fill:#F08E77;}
	.st16{fill-rule:evenodd;clip-rule:evenodd;fill:#083A47;}
	.st17{fill-rule:evenodd;clip-rule:evenodd;fill:#33A4AC;}
	.st18{fill-rule:evenodd;clip-rule:evenodd;fill:#F79222;}
	.st19{fill-rule:evenodd;clip-rule:evenodd;fill:#C6C6C9;}
	.st20{fill-rule:evenodd;clip-rule:evenodd;fill:#DF8127;}
	.st21{fill-rule:evenodd;clip-rule:evenodd;fill:#441D11;}
	.st22{fill-rule:evenodd;clip-rule:evenodd;fill:#135B67;}
	.st23{fill-rule:evenodd;clip-rule:evenodd;fill:#08313D;}
	.st24{fill-rule:evenodd;clip-rule:evenodd;fill:#F58231;}
	.st25{fill-rule:evenodd;clip-rule:evenodd;fill:#E0DEDE;}
	.st26{fill-rule:evenodd;clip-rule:evenodd;fill:#116F63;}
	.st27{fill-rule:evenodd;clip-rule:evenodd;fill:#27939C;}
	.st28{fill-rule:evenodd;clip-rule:evenodd;fill:#7BCED4;}
	.st29{fill-rule:evenodd;clip-rule:evenodd;fill:#042632;}
	.st30{fill-rule:evenodd;clip-rule:evenodd;fill:#FFC421;}
	.st31{fill-rule:evenodd;clip-rule:evenodd;fill:#C9E6E8;}
	.st32{fill-rule:evenodd;clip-rule:evenodd;fill:#E0F2F2;}
	.st33{fill-rule:evenodd;clip-rule:evenodd;fill:#ADDBDD;}
	.st34{fill-rule:evenodd;clip-rule:evenodd;fill:#A0D6D9;}
	.st35{fill-rule:evenodd;clip-rule:evenodd;fill:#2DBBAA;}
	.st36{fill-rule:evenodd;clip-rule:evenodd;fill:#63C6BF;}
	.st37{fill-rule:evenodd;clip-rule:evenodd;fill:#001A22;}
	.st38{fill-rule:evenodd;clip-rule:evenodd;fill:#43BEAD;}
</style>
<g>
	<g>
		<path class="st0" d="M697.5,993.8h-98.9H322.9c-14.1,0-25.6-11.5-25.6-25.6l0,0c0-14.1,11.5-25.6,25.6-25.6h13.8
			c8.7,0,15.9-7.1,15.9-15.9v0c0-8.7-7.1-15.9-15.9-15.9H152c-40.4,0-73.5-33.1-73.5-73.5l0,0c0-40.4,33.1-73.5,73.5-73.5h4.2
			c5.2,0,9.5-4.3,9.5-9.5v0c0-5.2-4.3-9.5-9.5-9.5h-37.3c-34.9,0-63.4-28.5-63.4-63.4l0,0c0-34.9,28.5-63.4,63.4-63.4h-1
			c6.5,0,11.8-5.3,11.8-11.8l0,0c0-6.5-5.3-11.8-11.8-11.8H79.3c-10.7,0-19.5-8.8-19.5-19.5l0,0c0-10.7,8.8-19.5,19.5-19.5h38.5
			c18.5,0,33.7-15.2,33.7-33.7l0,0l0,0c0-25.8,21.1-46.8,46.8-46.8h53.1c11.3,0,20.5-9.2,20.5-20.5v0c0-11.3-9.2-20.5-20.5-20.5
			h-76.8c-18.8,0-34.2-15.4-34.2-34.2v0c0-18.8,15.4-34.2,34.2-34.2H376c9.8,0,17.9-8,17.9-17.9l0,0c0-9.8-8-17.9-17.9-17.9h-94.2
			c-20,0-36.3-16.3-36.3-36.3l0,0c0-20,16.3-36.3,36.3-36.3h208.9c7.5,0,13.7-6.2,13.7-13.7v0c0-7.5-6.2-13.7-13.7-13.7h-57.9
			c-11.6,0-21-9.5-21-21l0,0c0-11.6,9.5-21,21-21h248.4c11.6,0,21,9.5,21,21l0,0c0,11.6-9.5,21-21,21h-42.1
			c-7.5,0-13.7,6.2-13.7,13.7v0c0,7.5,6.2,13.7,13.7,13.7h31h27.4h383.1c20.3,0,36.8,16.6,36.8,36.8l0,0c0,20.3-16.6,36.8-36.8,36.8
			H930.1c-5.2,0-9.5,4.3-9.5,9.5l0,0c0,5.2,4.3,9.5,9.5,9.5h183.1c12.4,0,22.6,10.2,22.6,22.6l0,0c0,12.4-10.2,22.6-22.6,22.6h-14.5
			c-7.4,0-13.4,6.1-13.4,13.4l0,0c0,7.4,6.1,13.5,13.4,13.5h111c16.6,0,30.3,13.6,30.3,30.3l0,0c0,16.6-13.6,30.3-30.3,30.3h-24.5
			c-5.8,0-10.5,4.7-10.5,10.5l0,0c0,5.8,4.7,10.5,10.5,10.5H1310c24.9,0,45.3,20.4,45.3,45.3l0,0c0,24.9-20.4,45.3-45.3,45.3h-16.6
			c-6,0-10.9,4.9-10.9,10.9l0,0c0,6,4.9,10.9,10.9,10.9h57.2c34.8,0,63.3,28.5,63.3,63.3l0,0c0,34.8-28.5,63.3-63.3,63.3h-5.8
			c-14.1,0-25.6,11.5-25.6,25.6l0,0c0,14.1,11.5,25.6,25.6,25.6h53.3c25.5,0,46.4,20.9,46.4,46.4l0,0c0,25.5-20.9,46.4-46.4,46.4
			H1211c-9.3,0-16.8,7.6-16.8,16.8v0c0,9.3,7.6,16.8,16.8,16.8h27.1c20.3,0,37,16.6,37,37v0c0,20.3-16.6,37-37,37h-85.6
			c-7.5,0-13.7,6.2-13.7,13.7v0c0,7.5,6.2,13.7,13.7,13.7h57.9c11.6,0,21,9.5,21,21l0,0c0,11.6-9.5,21-21,21H962
			c-11.6,0-21-9.5-21-21l0,0c0-11.6,9.5-21,21-21h42.1c7.5,0,13.7-6.2,13.7-13.7v0c0-7.5-6.2-13.7-13.7-13.7L697.5,993.8
			L697.5,993.8z M901.5,1021.2h-5.3c-11.6,0-21,9.5-21,21l0,0c0,11.6,9.5,21,21,21h5.3c11.6,0,21-9.5,21-21l0,0
			C922.5,1030.6,913,1021.2,901.5,1021.2L901.5,1021.2z M1337.3,919.9h-0.6c-20.3,0-37,16.6-37,37v0c0,20.3,16.6,37,37,37h0.6
			c20.3,0,37-16.6,37-37v0C1374.2,936.5,1357.6,919.9,1337.3,919.9L1337.3,919.9z M1185.1,349.8h-0.8c-12.4,0-22.6,10.2-22.6,22.6
			l0,0c0,12.4,10.2,22.6,22.6,22.6h0.8c12.4,0,22.6-10.2,22.6-22.6l0,0C1207.7,359.9,1197.5,349.8,1185.1,349.8L1185.1,349.8z
			 M741.7,229.8h5.3c11.6,0,21-9.5,21-21l0,0c0-11.6-9.5-21-21-21h-5.3c-11.6,0-21,9.5-21,21l0,0
			C720.7,220.3,730.2,229.8,741.7,229.8z"/>
		<g>
			<g>
				<g>
					<path class="st1" d="M767.1,845.6c0,0,146.4-40.2,174.3-42.9c27.9-2.6,33.7,32.4,19.2,51.7c-14.5,19.3-83.1,69.5-99.9,75.8
						C843.8,936.5,767.1,845.6,767.1,845.6z"/>
					<path class="st1" d="M717.1,845.6c0,0-146.4-40.2-174.3-42.9c-27.9-2.6-33.7,32.4-19.2,51.7c14.5,19.3,83.1,69.5,99.9,75.8
						C640.4,936.5,717.1,845.6,717.1,845.6z"/>
				</g>
				<path class="st2" d="M766.6,347.3c0,0-28.1-27-76.4,0.6c-48.2,27.6-117.2,156.8,27,256.7C861.4,704.5,758,713.7,758,713.7
					s41.3,28.7,88.4-33.3C962,528.2,811.2,323,766.6,347.3z"/>
				<path class="st3" d="M713.5,601.9c1.2,0.9,2.5,1.8,3.7,2.7C861.4,704.5,758,713.7,758,713.7c107.4,19.8,97.2-199.7,58.3-222.5
					c-19.5-11.5-110,4-110,4l-35.4,16C671,511.1,666.4,554,713.5,601.9z"/>
				<rect x="718.5" y="538.6" class="st4" width="40.4" height="58.2"/>
				<path class="st5" d="M794.5,584.8c0,0,26.7-1.2,40,24.3c13.3,25.5,63.4,118.9,69.2,122.8c0,0,6.7,8.5,7.6,13.1
					c0.4,2.1,1,6.2,0.5,10.6l-0.1,0.7c-2.3,18.7-40.8,106.5-55.1,129.2l0.4,0.1c0,0-5.4,5.2,7.6,32.3c13,27.1-12.9,40.5-12.8,32.2
					c0.1-8.3-0.1-21.6-7.4-31.4c-1.9-2.5-4.1-4.7-6.3-6.7l0,0c0,0-3.4-0.7-5,5.7c-1.6,6.3-13.6,9.1-15.1,4.2
					c-1.5-4.8,6.9-4.4,4.9-12.5c-2.1-8.1,2.5-13.9,2.5-14c0-0.3,0-0.6,0.1-0.9c1-9.8,16.1-15,16.1-15l0,0c0.8-2.1,1.8-4.6,3.2-7.5
					c15.7-34.2,46.3-109.9,18.1-140.9c-15.8-17.3-51.8-72.1-62.1-80C790.3,643,779.3,599.1,794.5,584.8z"/>
				<path class="st4" d="M911.5,757.5c-3.7,21-40.9,105.7-55,128l0.4,0.1c0,0-5.4,5.2,7.6,32.3c2.9,6,3.8,11.3,3.6,15.9
					c-7.4-3.1-15.2-8.3-23.2-14.3c-0.2-0.3-0.4-0.6-0.6-0.8c-1.9-2.5-4.1-4.7-6.3-6.7l0,0c0,0-1-0.2-2.1,0.6
					c-4.4-3.5-8.9-7.1-13.4-10.7c0.8-4,2.7-6.5,2.8-6.6c0-0.3,0-0.6,0.1-0.9c1-9.8,16.1-15,16.1-15l0,0c0.8-2.1,1.8-4.6,3.2-7.5
					c2.2-4.8,4.7-10.5,7.3-16.7c2.9,0.1,5.4-0.5,7.3-2.4C870.1,842,911.3,757.9,911.5,757.5z"/>
				<path class="st4" d="M843.9,626.9c3.9,7.2,8.4,15.6,13.1,24.4c-6.3,3-15.6,10.9-12.8,31.4c3.5,25.3,30.3,51.8,28.2,68
					c-1.7-7.7-4.9-14.4-9.8-19.8c-10.1-11-28.4-37.4-43-57C828.6,656.4,839,636.3,843.9,626.9z"/>
				<path class="st5" d="M677.4,584.8c0,0-26.7-1.2-40,24.3C624,634.6,573.9,728,568.2,731.9c0,0-6.7,8.5-7.6,13.1
					c-0.4,2.1-1,6.2-0.5,10.6l0.1,0.7c2.3,18.7,40.8,106.5,55.1,129.2l-0.4,0.1c0,0,5.4,5.2-7.6,32.3c-13,27.1,12.9,40.5,12.8,32.2
					c-0.1-8.3,0.1-21.6,7.4-31.4c1.9-2.5,4.1-4.7,6.3-6.7l0,0c0,0,3.4-0.7,5,5.7c1.6,6.3,13.6,9.1,15.1,4.2c1.5-4.8-7-4.4-4.9-12.5
					c2.1-8.1-2.5-13.9-2.5-14c0-0.3,0-0.6-0.1-0.9c-1-9.8-16.1-15-16.1-15h0c-0.8-2.1-1.8-4.6-3.2-7.5
					c-15.7-34.2-46.3-109.9-18.1-140.9c15.8-17.3,51.8-72.1,62.1-80C681.6,643,692.5,599.1,677.4,584.8z"/>
				<path class="st4" d="M560.3,757.5c3.7,21,40.9,105.7,55,128l-0.4,0.1c0,0,5.4,5.2-7.6,32.3c-2.9,6-3.8,11.3-3.6,15.9
					c7.4-3.1,15.2-8.3,23.2-14.3c0.2-0.3,0.4-0.6,0.6-0.8c1.9-2.5,4.1-4.7,6.3-6.7l0,0c0,0,1-0.2,2.1,0.6c4.4-3.5,8.9-7.1,13.4-10.7
					c-0.8-4-2.7-6.5-2.8-6.6c0-0.3,0-0.6-0.1-0.9c-1-9.8-16.1-15-16.1-15h0c-0.8-2.1-1.8-4.6-3.2-7.5c-2.2-4.8-4.7-10.5-7.3-16.7
					c-2.9,0.1-5.4-0.5-7.3-2.4C601.7,842,560.5,757.9,560.3,757.5z"/>
				<path class="st4" d="M627.9,626.9c-3.9,7.2-8.4,15.6-13.1,24.4c6.3,3,15.6,10.9,12.8,31.4c-3.5,25.3-30.3,51.8-28.2,68
					c1.7-7.7,4.9-14.4,9.8-19.8c10.1-11,28.4-37.4,43-57C643.3,656.4,632.9,636.3,627.9,626.9z"/>
				<path class="st6" d="M802.7,661c0,0,17.5,23.2,21,25.1c3.5,1.9,6.8-2.2,8.9-8.1c2.1-5.9,15.6-31.2,24.5-32.9c0,0,2.7-2.7,1-6.4
					c-1.8-3.7-17.6-53.9-60.2-53.9h-8.2L802.7,661z"/>
				<path class="st7" d="M738.5,584.8h53.2c0,0,26.7-0.4,22,33.8c-4.8,34.2-14.5,201.2-14.5,201.2s-2.7,6.9-12.1,6.9s-48.5,0-48.5,0
					s-39.2,0-48.5,0c-9.3,0-12.1-6.9-12.1-6.9s-14.4-167-19.1-201.2c-4.8-34.2,22-33.8,22-33.8H738.5z"/>
				<path class="st6" d="M781.8,584.8h9.8c0,0,26.7-0.4,22,33.8c-4.8,34.2-14.5,201.2-14.5,201.2s-2.7,6.9-12.1,6.9h-5.2
					c-38.2-3-77.7-10-104.8-17.4c-0.5-6-1.2-14.3-2.1-24c88.7-15.4,114.5-97.4,119.7-142.8C800.1,595,781.8,584.8,781.8,584.8z"/>
				<path class="st8" d="M794.1,585c-2.3,28.6-26.2,51.2-55.4,51.2c-29.3,0-53.3-22.6-55.5-51.4h55.2h53.2
					C791.6,584.8,792.6,584.8,794.1,585z"/>
				<path class="st9" d="M794.1,585c-0.4,4.7-1.3,9.2-2.8,13.5c-4.1-10.6-9.6-13.7-9.6-13.7h9.8h0l0,0l0,0h0h0l0,0h0h0h0h0h0h0h0h0
					h0h0h0h0h0h0l0,0h0h0h0l0,0h0h0l0,0h0h0h0h0l0,0h0h0l0,0h0l0,0h0l0,0h0l0,0h0l0,0h0l0,0l0,0l0.1,0l0,0h0l0.1,0l0.1,0l0.1,0
					l0.1,0l0.1,0h0l0,0l0.1,0l0.1,0l0.1,0l0.1,0h0l0,0l0.1,0l0.1,0l0.1,0l0.1,0l0,0l0,0l0.1,0l0.1,0l0.1,0l0.1,0L794.1,585z"/>
				<path class="st4" d="M738.7,579l20.2,5.9h18c0,21.1-17.1,38.2-38.2,38.2c-21.1,0-38.2-17.1-38.2-38.2h17.9L738.7,579z"/>
				<path class="st7" d="M672.5,661c0,0-17.5,23.2-21,25.1c-3.5,1.9-6.8-2.2-8.9-8.1c-2.1-5.9-15.6-31.2-24.5-32.9
					c0,0-2.7-2.7-1-6.4c1.7-3.7,17.6-53.9,60.2-53.9L672.5,661z"/>
				<path class="st6" d="M664.4,671.5c-5.1,6.4-11,13.6-12.9,14.6c-3.5,1.9-6.8-2.2-8.9-8.1c-0.5-1.5-1.8-4.3-3.5-7.5
					c10.4-2.3,21.6-7.9,23.1-20.9L664.4,671.5z"/>
				<g>
					<path class="st10" d="M601,923.1h281.8c6.3,0,11.5,5.2,11.5,11.5v12.3c0,6.3-5.2,11.5-11.5,11.5H601c-6.3,0-11.5-5.2-11.5-11.5
						v-12.3C589.5,928.2,594.7,923.1,601,923.1z"/>
					<path class="st11" d="M605.8,938.8h272.1c1.8,0,3.2,1.4,3.2,3.2v3.4c0,1.8-1.4,3.2-3.2,3.2H605.8c-1.8,0-3.2-1.4-3.2-3.2v-3.4
						C602.7,940.2,604.1,938.8,605.8,938.8z"/>
					<path class="st8" d="M616.7,721.9h250.8c8.6,0,15.7,7.1,15.7,15.7v185.5c0,8.6-7.1,15.7-15.7,15.7H616.7
						c-8.6,0-15.7-7.1-15.7-15.7V737.6C601,728.9,608.1,721.9,616.7,721.9z"/>
					<path class="st12" d="M811.3,721.9h56.3c8.6,0,15.7,7.1,15.7,15.7v185.5c0,8.6-7.1,15.7-15.7,15.7H616.7
						c-8.6,0-15.7-7.1-15.7-15.7v-5.8C846.1,928.7,898.8,775.3,811.3,721.9z"/>
					<path class="st13" d="M742.1,808.9c4.6,0,8.9,1.5,12.4,4c-3.3,2.7-5.4,6.8-5.4,11.5c0,7.4,5.4,13.6,12.5,14.7
						c-3.3,7.5-10.8,12.7-19.6,12.7c-11.8,0-21.4-9.6-21.4-21.4C720.7,818.5,730.3,808.9,742.1,808.9z"/>
				</g>
				<rect x="720.2" y="532.3" class="st4" width="36.5" height="52.5"/>
				<path class="st14" d="M680.3,354.8c-13.7,11.2-27.8,29.3-37.4,51.8c92.4,34.3,164,13.7,200.2-2.9c-5.9-9.1-12.1-17.3-18.3-24.5
					C772.3,391.3,716.1,371.9,680.3,354.8z"/>
				<path class="st4" d="M671,511.1c10.9,0,19.7-8.9,19.7-19.7c0-10.8-8.8-19.7-19.7-19.7s-19.7,8.9-19.7,19.7
					C651.3,502.3,660.1,511.1,671,511.1z"/>
				<path class="st4" d="M805.9,511.1c10.9,0,19.7-8.9,19.7-19.7c0-10.8-8.8-19.7-19.7-19.7c-10.8,0-19.7,8.9-19.7,19.7
					C786.2,502.3,795.1,511.1,805.9,511.1z"/>
				<path class="st5" d="M738.5,377.1L738.5,377.1c37.1,0,67.5,30.4,67.5,67.5v56.3c0,37.1-30.4,67.5-67.5,67.5h0
					c-37.1,0-67.5-30.4-67.5-67.5v-56.3C671,407.5,701.3,377.1,738.5,377.1z"/>
				<path class="st15" d="M788.7,399.7c10.7,12,17.2,27.7,17.2,44.9v56.3c0,37.1-30.4,67.5-67.5,67.5h0c-3.5,0-6.9-0.3-10.3-0.8
					c81.2-4.2,79.9-91.8,28.3-125.6c-19.6-12.9-35.8-0.5-35.8-0.5l-35.7-7.3l47.4-56.8l0.8-0.1C737.2,378.8,760.6,387.7,788.7,399.7
					z"/>
				<path class="st2" d="M700.8,488.2L700.8,488.2c3.6,0,6.6,3,6.6,6.6v8.6c0,3.6-3,6.6-6.6,6.6l0,0c-3.6,0-6.6-3-6.6-6.6v-8.6
					C694.2,491.2,697.1,488.2,700.8,488.2z"/>
				<path class="st2" d="M776.1,488.2L776.1,488.2c3.6,0,6.6,3,6.6,6.6v8.6c0,3.6-3,6.6-6.6,6.6l0,0c-3.6,0-6.6-3-6.6-6.6v-8.6
					C769.5,491.2,772.5,488.2,776.1,488.2z"/>
				<path class="st2" d="M691.4,461.2h18.7c2,0,3.6,1.6,3.6,3.6l0,0c0,2-1.6,3.6-3.6,3.6h-18.7c-2,0-3.6-1.6-3.6-3.6l0,0
					C687.8,462.8,689.5,461.2,691.4,461.2z"/>
				<path class="st2" d="M766.8,461.2h18.7c2,0,3.6,1.6,3.6,3.6l0,0c0,2-1.6,3.6-3.6,3.6h-18.7c-2,0-3.6-1.6-3.6-3.6l0,0
					C763.2,462.8,764.8,461.2,766.8,461.2z"/>
				<path class="st8" d="M759.9,533.2c0,11.9-9.6,21.5-21.5,21.5c-11.9,0-21.5-9.6-21.5-21.5h0c0-2,1.7-3.7,3.7-3.7h35.4
					C758.2,529.4,759.9,531.1,759.9,533.2L759.9,533.2z"/>
				<g>
					<path class="st4" d="M696.5,536c5.4,0,9.8-4.4,9.8-9.8c0-5.4-4.4-9.8-9.8-9.8c-5.4,0-9.8,4.4-9.8,9.8
						C686.7,531.7,691.1,536,696.5,536z"/>
					<path class="st4" d="M780.4,536c5.4,0,9.8-4.4,9.8-9.8c0-5.4-4.4-9.8-9.8-9.8c-5.4,0-9.8,4.4-9.8,9.8
						C770.7,531.7,775.1,536,780.4,536z"/>
				</g>
				<path class="st2" d="M748.3,411c0,0-46.5,63.7-102.2,72.4l18.4-97.1c0,0,68.9-38.5,72.9-38.5c4,0,43.1,17.8,50.5,24.7
					c7.5,6.9,39.1,45.9,39.1,45.9l9.8,40.2l-12.8,24.7C823.9,483.4,782.7,478,748.3,411z"/>
				<path class="st14" d="M748.3,411c0,0-4.2,5.8-11.6,14.1c-23.3-0.5-49.2-4.2-77.2-12.8l4.9-25.9c0,0,20-11.2,39.1-21.5
					c27.1,10.5,60.3,19.4,93.8,18c8,9.2,18.3,21.8,24.5,29.3c-17.7,6-39.9,11.2-65.8,12.6C753.4,420.5,750.8,415.9,748.3,411z"/>
			</g>
			<g>
				<path class="st16" d="M938.9,560.5h116c2.4,0,4.3,1.9,4.3,4.3v169.3c0,2.4-1.9,4.3-4.3,4.3h-116c-2.3,0-4.3-1.9-4.3-4.3V564.8
					C934.6,562.4,936.5,560.5,938.9,560.5z"/>
				<path class="st8" d="M938.9,560.5h116c2.4,0,4.3,1.9,4.3,4.3v17.2H934.6v-17.2C934.6,562.4,936.5,560.5,938.9,560.5z"/>
				<path class="st7" d="M947.4,574.7c1.9,0,3.5-1.6,3.5-3.5c0-1.9-1.6-3.5-3.5-3.5c-1.9,0-3.5,1.6-3.5,3.5
					C943.9,573.1,945.5,574.7,947.4,574.7z"/>
				<path class="st17" d="M961,574.7c1.9,0,3.5-1.6,3.5-3.5c0-1.9-1.6-3.5-3.5-3.5s-3.5,1.6-3.5,3.5
					C957.5,573.1,959.1,574.7,961,574.7z"/>
				<path class="st18" d="M974.6,574.7c1.9,0,3.5-1.6,3.5-3.5c0-1.9-1.6-3.5-3.5-3.5c-1.9,0-3.5,1.6-3.5,3.5
					C971.1,573.1,972.7,574.7,974.6,574.7z"/>
				<path class="st7" d="M957.7,590.7h9.6c1.9,0,3.5,1.6,3.5,3.5l0,0c0,1.9-1.6,3.5-3.5,3.5h-9.6c-1.9,0-3.5-1.6-3.5-3.5l0,0
					C954.2,592.3,955.7,590.7,957.7,590.7z"/>
				<path class="st18" d="M957.7,608h3.5c1.9,0,3.5,1.6,3.5,3.5l0,0c0,1.9-1.6,3.5-3.5,3.5h-3.5c-1.9,0-3.5-1.6-3.5-3.5l0,0
					C954.2,609.5,955.7,608,957.7,608z"/>
				<path class="st8" d="M971.3,608H985c1.9,0,3.5,1.6,3.5,3.5l0,0c0,1.9-1.6,3.5-3.5,3.5h-13.7c-1.9,0-3.5-1.6-3.5-3.5l0,0
					C967.8,609.5,969.4,608,971.3,608z"/>
				<path class="st8" d="M961.6,621.7h3.5c1.9,0,3.5,1.6,3.5,3.5l0,0c0,1.9-1.6,3.5-3.5,3.5h-3.5c-1.9,0-3.5-1.6-3.5-3.5l0,0
					C958.1,623.3,959.7,621.7,961.6,621.7z"/>
				<path class="st8" d="M975.3,621.7h13.7c1.9,0,3.5,1.6,3.5,3.5l0,0c0,1.9-1.6,3.5-3.5,3.5h-13.7c-1.9,0-3.5-1.6-3.5-3.5l0,0
					C971.8,623.3,973.3,621.7,975.3,621.7z"/>
				<path class="st17" d="M965.5,635.5h3.5c1.9,0,3.5,1.6,3.5,3.5l0,0c0,1.9-1.6,3.5-3.5,3.5h-3.5c-1.9,0-3.5-1.6-3.5-3.5l0,0
					C962,637,963.6,635.5,965.5,635.5z"/>
				<path class="st8" d="M979.2,635.5h28.6c1.9,0,3.5,1.6,3.5,3.5l0,0c0,1.9-1.6,3.5-3.5,3.5h-28.6c-1.9,0-3.5-1.6-3.5-3.5l0,0
					C975.7,637,977.3,635.5,979.2,635.5z"/>
				<path class="st18" d="M969.5,649.2h3.5c1.9,0,3.5,1.6,3.5,3.5l0,0c0,1.9-1.6,3.5-3.5,3.5h-3.5c-1.9,0-3.5-1.6-3.5-3.5l0,0
					C966,650.8,967.5,649.2,969.5,649.2z"/>
				<path class="st8" d="M983.1,649.2h19.6c1.9,0,3.5,1.6,3.5,3.5l0,0c0,1.9-1.6,3.5-3.5,3.5h-19.6c-1.9,0-3.5-1.6-3.5-3.5l0,0
					C979.6,650.8,981.2,649.2,983.1,649.2z"/>
				<path class="st7" d="M973.4,663h3.5c1.9,0,3.5,1.6,3.5,3.5l0,0c0,1.9-1.6,3.5-3.5,3.5h-3.5c-1.9,0-3.5-1.6-3.5-3.5l0,0
					C969.9,664.5,971.5,663,973.4,663z"/>
				<path class="st8" d="M987,663h24.5c1.9,0,3.5,1.6,3.5,3.5l0,0c0,1.9-1.6,3.5-3.5,3.5H987c-1.9,0-3.5-1.6-3.5-3.5l0,0
					C983.6,664.5,985.1,663,987,663z"/>
				<path class="st18" d="M971.5,676.7h3.5c1.9,0,3.5,1.6,3.5,3.5l0,0c0,1.9-1.6,3.5-3.5,3.5h-3.5c-1.9,0-3.5-1.6-3.5-3.5l0,0
					C968,678.3,969.6,676.7,971.5,676.7z"/>
				<path class="st8" d="M985.2,676.7h13.7c1.9,0,3.5,1.6,3.5,3.5l0,0c0,1.9-1.6,3.5-3.5,3.5h-13.7c-1.9,0-3.5-1.6-3.5-3.5l0,0
					C981.7,678.3,983.3,676.7,985.2,676.7z"/>
				<path class="st7" d="M961.6,690.4h3.5c1.9,0,3.5,1.6,3.5,3.5l0,0c0,1.9-1.6,3.5-3.5,3.5h-3.5c-1.9,0-3.5-1.6-3.5-3.5l0,0
					C958.1,692,959.7,690.4,961.6,690.4z"/>
				<path class="st8" d="M979.3,690.4h13.7c1.9,0,3.5,1.6,3.5,3.5l0,0c0,1.9-1.6,3.5-3.5,3.5h-13.7c-1.9,0-3.5-1.6-3.5-3.5l0,0
					C975.8,692,977.3,690.4,979.3,690.4z"/>
				<path class="st18" d="M967.3,704.2h3.5c1.9,0,3.5,1.6,3.5,3.5l0,0c0,1.9-1.6,3.5-3.5,3.5h-3.5c-1.9,0-3.5-1.6-3.5-3.5l0,0
					C963.8,705.8,965.4,704.2,967.3,704.2z"/>
				<path class="st8" d="M981,704.2h42.4c1.9,0,3.5,1.6,3.5,3.5l0,0c0,1.9-1.6,3.5-3.5,3.5H981c-1.9,0-3.5-1.6-3.5-3.5l0,0
					C977.5,705.8,979,704.2,981,704.2z"/>
				<path class="st7" d="M958,717.9h3.5c1.9,0,3.5,1.6,3.5,3.5l0,0c0,1.9-1.6,3.5-3.5,3.5H958c-1.9,0-3.5-1.6-3.5-3.5l0,0
					C954.6,719.5,956.1,717.9,958,717.9z"/>
				<path class="st17" d="M1036.5,704.2h3.5c1.9,0,3.5,1.6,3.5,3.5l0,0c0,1.9-1.6,3.5-3.5,3.5h-3.5c-1.9,0-3.5-1.6-3.5-3.5l0,0
					C1033,705.8,1034.6,704.2,1036.5,704.2z"/>
				<path class="st17" d="M1004,690.4h1.3c1.9,0,3.5,1.6,3.5,3.5l0,0c0,1.9-1.6,3.5-3.5,3.5h-1.3c-1.9,0-3.5-1.6-3.5-3.5l0,0
					C1000.5,692,1002.1,690.4,1004,690.4z"/>
				<path class="st8" d="M1018.2,690.4h1.3c1.9,0,3.5,1.6,3.5,3.5l0,0c0,1.9-1.6,3.5-3.5,3.5h-1.3c-1.9,0-3.5-1.6-3.5-3.5l0,0
					C1014.7,692,1016.3,690.4,1018.2,690.4z"/>
				<path class="st8" d="M1001.2,621.7h3.5c1.9,0,3.5,1.6,3.5,3.5l0,0c0,1.9-1.6,3.5-3.5,3.5h-3.5c-1.9,0-3.5-1.6-3.5-3.5l0,0
					C997.7,623.3,999.3,621.7,1001.2,621.7z"/>
				<path class="st17" d="M1019.9,621.7h3.5c1.9,0,3.5,1.6,3.5,3.5l0,0c0,1.9-1.6,3.5-3.5,3.5h-3.5c-1.9,0-3.5-1.6-3.5-3.5l0,0
					C1016.4,623.3,1017.9,621.7,1019.9,621.7z"/>
			</g>
			<g>
				<path class="st18" d="M1081.6,549.9h6.6c2.1,0,3.8,1.7,3.8,3.8v155l0,0v0v0v0v0v0v0v0v0v4.7c0,3.5-5.1,16.6-7.1,16.6
					s-7.1-13.1-7.1-16.6v-4.7v0v0v0v0v0v0v0v0l0,0v-155C1077.8,551.6,1079.5,549.9,1081.6,549.9z"/>
				<path class="st7" d="M1081.6,549.9h6.6c2.1,0,3.8,1.7,3.8,3.8v26.8h-14.2v-26.8C1077.8,551.6,1079.5,549.9,1081.6,549.9z"/>
				<rect x="1077.8" y="570" class="st8" width="14.2" height="15.7"/>
				<path class="st8" d="M1092,710.2v3.3c0,3.5-5.1,16.6-7.1,16.6s-7.1-13.1-7.1-16.6v-3.3c2-1.5,4.4-2.4,7.1-2.4l0,0
					C1087.6,707.8,1090,708.7,1092,710.2z"/>
				<path class="st2" d="M1088.6,724.5c-1.4,3.1-2.8,5.6-3.7,5.6c-0.9,0-2.4-2.5-3.7-5.6c1.1-0.7,2.3-1.1,3.7-1.1
					S1087.6,723.7,1088.6,724.5z"/>
				<path class="st6" d="M1088.3,553.7V570h3.7v-16.3c0-1.2-0.6-2.3-1.5-3c-0.7-0.5-1.7-0.7-2.7-0.8h-3.7
					C1086.5,550.1,1088.3,551,1088.3,553.7z"/>
				<polygon class="st19" points="1092,570 1088.3,570 1088.3,580.5 1088.3,585.6 1092,585.6 				"/>
				<path class="st20" d="M1092,585.6h-3.7v122.7c1.3,0.4,2.6,1,3.7,1.8V585.6z"/>
				<path class="st19" d="M1092,710.2c-1.1-0.8-2.3-1.4-3.7-1.8v5.2c0,2.7-3,10.9-5.3,14.7c0.7,1.2,1.4,1.9,1.8,1.9
					c2,0,7.1-13.1,7.1-16.6L1092,710.2L1092,710.2z"/>
				<path class="st21" d="M1085.4,723.3c-0.8,1.8-1.6,3.6-2.4,4.8c0.7,1.2,1.4,1.9,1.8,1.9c0.9,0,2.4-2.5,3.7-5.6
					C1087.7,723.8,1086.6,723.4,1085.4,723.3z"/>
			</g>
			<g>
				<path class="st8" d="M952.7,358.2h88.5c4,0,7.3,3.3,7.3,7.3v106.4c0,4-3.3,7.3-7.3,7.3h-88.5c-4,0-7.3-3.3-7.3-7.3V365.6
					C945.3,361.5,948.6,358.2,952.7,358.2z"/>
				<rect x="956.3" y="369.2" class="st17" width="81.1" height="82.2"/>
				<path class="st16" d="M956.3,426.6v24.9h64.3l0.2-0.2c1.6-1.6,1.6-4.3,0-5.9l-38.7-38.7c-1.6-1.6-4.3-1.6-5.9,0L956.3,426.6z"/>
				<path class="st22" d="M976.7,451.4h60.7v-15.3l-19.8-19.8c-1.6-1.6-4.3-1.6-5.9,0L976.7,451.4z"/>
				<path class="st8" d="M1019.7,402.2c5.8,0,10.5-4.7,10.5-10.5s-4.7-10.5-10.5-10.5c-5.8,0-10.5,4.7-10.5,10.5
					S1013.9,402.2,1019.7,402.2z"/>
			</g>
			<g>
				<g>
					<rect x="1207.8" y="616.3" class="st17" width="18.3" height="13.2"/>
					<path class="st16" d="M1216.5,621.3c30.7,0,55.8-25.1,55.8-55.8c0-30.7-25.1-55.8-55.8-55.8s-55.8,25.1-55.8,55.8
						C1160.8,596.3,1185.8,621.3,1216.5,621.3z"/>
					<path class="st18" d="M1216.5,605.8c22.2,0,40.3-18.1,40.3-40.3c0-22.2-18.1-40.3-40.3-40.3s-40.3,18.1-40.3,40.3
						C1176.3,587.7,1194.4,605.8,1216.5,605.8z"/>
					<rect x="1204.7" y="629.4" class="st16" width="24.5" height="68.8"/>
					<rect x="1221.6" y="629.4" class="st23" width="7.6" height="68.8"/>
					<path class="st8" d="M1202.9,625.4h28c1.9,0,3.5,1.6,3.5,3.5l0,0c0,1.9-1.6,3.5-3.5,3.5h-28c-1.9,0-3.5-1.6-3.5-3.5l0,0
						C1199.4,627,1201,625.4,1202.9,625.4z"/>
					<path class="st8" d="M1202.9,696.4h28c1.9,0,3.5,1.6,3.5,3.5l0,0c0,1.9-1.6,3.5-3.5,3.5h-28c-1.9,0-3.5-1.6-3.5-3.5l0,0
						C1199.4,697.9,1201,696.4,1202.9,696.4z"/>
					<path class="st24" d="M1250.9,559c0,22.2-18,40.3-40.3,40.3c-10.3,0-19.7-3.9-26.8-10.2c7.3,10.2,19.2,16.8,32.7,16.8
						c22.2,0,40.3-18,40.3-40.3c0-11.9-5.2-22.7-13.5-30C1248.1,542.1,1250.9,550.2,1250.9,559z"/>
					<path class="st23" d="M1268.5,558.7c0,30.8-25,55.8-55.8,55.8c-19.6,0-36.8-10.1-46.7-25.3c7.8,16.7,23.7,28.9,42.6,31.6
						c2.6,0.4,5.2,0.6,7.9,0.6c3,0,5.9-0.2,8.7-0.7c26.7-4.2,47.1-27.3,47.1-55.1c0-11.3-3.3-21.7-9.1-30.5
						C1266.6,542.2,1268.5,550.3,1268.5,558.7z"/>
				</g>
				<path class="st8" d="M1187.3,562c0,1.6-1.3,3-3,3c-1.7,0-3-1.3-3-3c0,0,0.1-1.4,0.6-3.3c0.4-1.6,2-2.6,3.6-2.2
					c1.6,0.4,2.6,2,2.2,3.6C1187.4,561.4,1187.3,562,1187.3,562L1187.3,562z M1191.3,551.1c-0.8,1.4-2.6,1.9-4.1,1.1
					s-1.9-2.6-1.1-4.1c2.5-4.4,6.3-9.1,12.1-12.7c4.5-2.8,10.2-5,17.3-5.9c1.6-0.2,3.1,1,3.3,2.6c0.2,1.6-1,3.1-2.6,3.3
					c-6.2,0.7-11,2.6-14.8,5C1196.6,543.5,1193.4,547.4,1191.3,551.1z"/>
			</g>
			<g>
				<path class="st8" d="M1212.9,729.7h8.7c2,1.4-0.3,5.1-1.4,6.6c-0.2,0.2-0.3,0.4-0.4,0.6l0,0v0l0,0l0,0c-0.4,0.6-0.6,1.4-0.6,2.2
					c0,2.4,1.9,4.3,4.3,4.3c2.4,0,4.3-1.9,4.3-4.3c0-0.8-0.2-1.6-0.6-2.2h0l0,0v0l0,0c-0.1-0.2-0.3-0.4-0.4-0.6
					c-1.1-1.5-3.4-5.3-1.4-6.6h13.2c2,1.4-0.3,5.1-1.4,6.6c-0.2,0.2-0.3,0.4-0.4,0.6l0,0v0l0,0l0,0c-0.4,0.6-0.6,1.4-0.6,2.2
					c0,2.4,1.9,4.3,4.3,4.3c2.4,0,4.3-1.9,4.3-4.3c0-0.8-0.2-1.6-0.6-2.2l0,0l0,0v0l0,0c-0.1-0.2-0.3-0.4-0.4-0.6
					c-1.1-1.5-3.4-5.3-1.4-6.6h13.2c2,1.4-0.3,5.1-1.4,6.6c-0.2,0.2-0.3,0.4-0.4,0.6l0,0v0l0,0l0,0c-0.4,0.6-0.6,1.4-0.6,2.2
					c0,2.4,1.9,4.3,4.3,4.3c2.4,0,4.3-1.9,4.3-4.3c0-0.8-0.2-1.6-0.6-2.2l0,0l0,0v0l0,0c-0.1-0.2-0.3-0.4-0.4-0.6
					c-1.1-1.5-3.4-5.3-1.4-6.6h13.2c2,1.4-0.3,5.1-1.4,6.6c-0.2,0.2-0.3,0.4-0.4,0.6l0,0l0,0l0,0l0,0c-0.4,0.6-0.6,1.4-0.6,2.2
					c0,2.4,1.9,4.3,4.3,4.3c2.4,0,4.3-1.9,4.3-4.3c0-0.8-0.2-1.6-0.6-2.2l0,0l0,0v0l0,0c-0.1-0.2-0.3-0.4-0.4-0.6
					c-1.1-1.5-3.4-5.3-1.4-6.6h13.2c2,1.4-0.3,5.1-1.4,6.6c-0.2,0.2-0.3,0.4-0.4,0.6l0,0l0,0l0,0l0,0c-0.4,0.6-0.6,1.4-0.6,2.2
					c0,2.4,1.9,4.3,4.3,4.3c2.4,0,4.3-1.9,4.3-4.3c0-0.8-0.2-1.6-0.6-2.2h0l0,0v0l0,0c-0.1-0.2-0.3-0.4-0.4-0.6
					c-1.1-1.5-3.4-5.3-1.4-6.6h8.7c4,0,7.3,3.3,7.3,7.3v106.4c0,4-3.3,7.3-7.3,7.3h-88.5c-4,0-7.3-3.3-7.3-7.3V737.1
					C1205.6,733,1208.9,729.7,1212.9,729.7z"/>
				<g>
					<path class="st16" d="M1223.6,757.6h5c1.5,0,2.8,1.2,2.8,2.8l0,0c0,1.5-1.2,2.8-2.8,2.8h-5c-1.5,0-2.8-1.2-2.8-2.8l0,0
						C1220.8,758.8,1222.1,757.6,1223.6,757.6z"/>
					<path class="st16" d="M1237.2,757.6h15.1c1.5,0,2.8,1.2,2.8,2.8l0,0c0,1.5-1.2,2.8-2.8,2.8h-15.1c-1.5,0-2.8-1.2-2.8-2.8l0,0
						C1234.5,758.8,1235.7,757.6,1237.2,757.6z"/>
					<path class="st16" d="M1227.5,768.4h5c1.5,0,2.8,1.2,2.8,2.8v0c0,1.5-1.2,2.8-2.8,2.8h-5c-1.5,0-2.8-1.2-2.8-2.8v0
						C1224.8,769.7,1226,768.4,1227.5,768.4z"/>
					<path class="st16" d="M1241.2,768.4h15.1c1.5,0,2.7,1.2,2.7,2.8v0c0,1.5-1.2,2.8-2.7,2.8h-15.1c-1.5,0-2.8-1.2-2.8-2.8v0
						C1238.4,769.7,1239.7,768.4,1241.2,768.4z"/>
					<path class="st16" d="M1231.4,779.3h5c1.5,0,2.8,1.2,2.8,2.8v0c0,1.5-1.2,2.8-2.8,2.8h-5c-1.5,0-2.8-1.2-2.8-2.8v0
						C1228.7,780.5,1229.9,779.3,1231.4,779.3z"/>
					<path class="st16" d="M1245.1,779.3h30c1.5,0,2.8,1.2,2.8,2.8v0c0,1.5-1.2,2.8-2.8,2.8h-30c-1.5,0-2.8-1.2-2.8-2.8v0
						C1242.3,780.5,1243.6,779.3,1245.1,779.3z"/>
					<path class="st16" d="M1235.4,790.2h5c1.5,0,2.8,1.2,2.8,2.8v0c0,1.5-1.2,2.8-2.8,2.8h-5c-1.5,0-2.8-1.2-2.8-2.8v0
						C1232.6,791.4,1233.9,790.2,1235.4,790.2z"/>
					<path class="st16" d="M1249,790.2h21.1c1.5,0,2.8,1.2,2.8,2.8v0c0,1.5-1.2,2.8-2.8,2.8H1249c-1.5,0-2.8-1.2-2.8-2.8v0
						C1246.3,791.4,1247.5,790.2,1249,790.2z"/>
					<path class="st16" d="M1239.3,801h5c1.5,0,2.8,1.2,2.8,2.8v0c0,1.5-1.2,2.8-2.8,2.8h-5c-1.5,0-2.8-1.2-2.8-2.8v0
						C1236.6,802.3,1237.8,801,1239.3,801z"/>
					<path class="st16" d="M1253,801h26c1.5,0,2.8,1.2,2.8,2.8v0c0,1.5-1.2,2.8-2.8,2.8h-26c-1.5,0-2.8-1.2-2.8-2.8v0
						C1250.2,802.3,1251.5,801,1253,801z"/>
					<path class="st16" d="M1237.4,811.9h5c1.5,0,2.8,1.2,2.8,2.8l0,0c0,1.5-1.2,2.8-2.8,2.8h-5c-1.5,0-2.8-1.2-2.8-2.8l0,0
						C1234.7,813.1,1235.9,811.9,1237.4,811.9z"/>
					<path class="st16" d="M1251.1,811.9h15.1c1.5,0,2.8,1.2,2.8,2.8l0,0c0,1.5-1.2,2.8-2.8,2.8h-15.1c-1.5,0-2.8-1.2-2.8-2.8l0,0
						C1248.4,813.1,1249.6,811.9,1251.1,811.9z"/>
					<path class="st16" d="M1227.5,822.7h5c1.5,0,2.8,1.2,2.8,2.8l0,0c0,1.5-1.2,2.8-2.8,2.8h-5c-1.5,0-2.8-1.2-2.8-2.8l0,0
						C1224.8,824,1226,822.7,1227.5,822.7z"/>
					<path class="st16" d="M1245.2,822.7h15.1c1.5,0,2.7,1.2,2.7,2.8l0,0c0,1.5-1.2,2.8-2.7,2.8h-15.1c-1.5,0-2.8-1.2-2.8-2.8l0,0
						C1242.4,824,1243.7,822.7,1245.2,822.7z"/>
					<path class="st16" d="M1233.2,833.6h5c1.5,0,2.8,1.2,2.8,2.8l0,0c0,1.5-1.2,2.8-2.8,2.8h-5c-1.5,0-2.8-1.2-2.8-2.8l0,0
						C1230.5,834.8,1231.7,833.6,1233.2,833.6z"/>
					<path class="st16" d="M1246.9,833.6h43.9c1.5,0,2.8,1.2,2.8,2.8l0,0c0,1.5-1.2,2.8-2.8,2.8h-43.9c-1.5,0-2.8-1.2-2.8-2.8l0,0
						C1244.1,834.8,1245.4,833.6,1246.9,833.6z"/>
					<path class="st16" d="M1269.9,822.7h2.8c1.5,0,2.8,1.2,2.8,2.8l0,0c0,1.5-1.2,2.8-2.8,2.8h-2.8c-1.5,0-2.8-1.2-2.8-2.8l0,0
						C1267.2,824,1268.4,822.7,1269.9,822.7z"/>
					<path class="st16" d="M1284.1,822.7h2.8c1.5,0,2.8,1.2,2.8,2.8l0,0c0,1.5-1.2,2.8-2.8,2.8h-2.8c-1.5,0-2.8-1.2-2.8-2.8l0,0
						C1281.4,824,1282.6,822.7,1284.1,822.7z"/>
					<path class="st16" d="M1267.1,768.4h5c1.5,0,2.8,1.2,2.8,2.8v0c0,1.5-1.2,2.8-2.8,2.8h-5c-1.5,0-2.8-1.2-2.8-2.8v0
						C1264.3,769.7,1265.6,768.4,1267.1,768.4z"/>
					<path class="st16" d="M1285.8,768.4h5c1.5,0,2.8,1.2,2.8,2.8v0c0,1.5-1.2,2.8-2.8,2.8h-5c-1.5,0-2.8-1.2-2.8-2.8v0
						C1283,769.7,1284.3,768.4,1285.8,768.4z"/>
				</g>
			</g>
			<g>
				<path class="st8" d="M1296.6,620.5L1296.6,620.5c14.9,0,27.1,12.2,27.1,27.1v28.7c0,14.9-12.2,27.1-27.1,27.1l0,0
					c-14.9,0-27.1-12.2-27.1-27.1v-28.7C1269.6,632.7,1281.7,620.5,1296.6,620.5z"/>
				<path class="st16" d="M1296.6,634.5L1296.6,634.5c2.5,0,4.5,2,4.5,4.5v5.7c0,2.5-2,4.5-4.5,4.5h0c-2.5,0-4.5-2-4.5-4.5V639
					C1292.2,636.6,1294.2,634.5,1296.6,634.5z"/>
				<path class="st19" d="M1319.9,643.4V672c0,14.9-12.2,27.1-27.1,27.1c-6.9,0-13.2-2.6-18.1-6.9c4.9,6.7,12.9,11.1,21.9,11.1
					c14.9,0,27.1-12.2,27.1-27.1v-28.7c0-8-3.5-15.2-9-20.2C1318,631.9,1319.9,637.4,1319.9,643.4z"/>
			</g>
			<g>
				<path class="st8" d="M1055,901.5v5v3.6c0.6,0.1,1.2,0.1,1.8,0.1c8.1,0,14.7-6.6,14.7-14.7c0-8.1-6.6-14.7-14.7-14.7
					c-0.6,0-1.2,0-1.8,0.1V901.5L1055,901.5z M1055,919.3v17.2c0,6.9-5.7,12.6-12.6,12.6h-55.8c-6.9,0-12.6-5.7-12.6-12.6v-30v-5
					v-42.6c0-3.5,2.8-6.3,6.3-6.3h68.4c3.5,0,6.3,2.8,6.3,6.3v12.7c0.6,0,1.2-0.1,1.8-0.1c13.2,0,23.9,10.7,23.9,23.9
					c0,13.2-10.7,23.9-23.9,23.9C1056.2,919.3,1055.6,919.3,1055,919.3z"/>
				<path class="st16" d="M1025.8,852.5c0-2,0.8-3.8,2.1-5.2c1.3-1.3,3.2-2.2,5.2-2.2s3.8,0.8,5.2,2.1c1.3,1.3,2.1,3.1,2.1,5.2v16.9
					c0,0.8-0.7,1.5-1.5,1.5c-0.8,0-1.5-0.7-1.5-1.5v-16.9c0-1.2-0.5-2.3-1.3-3.1c-0.8-0.8-1.9-1.3-3.1-1.3c-1.2,0-2.3,0.5-3.1,1.3
					c-0.8,0.8-1.3,1.9-1.3,3.1H1025.8z"/>
				<path class="st25" d="M1046.8,898v30c0,6.9-5.7,12.6-12.6,12.6h-55.8c-1.4,0-2.7-0.2-4-0.6c1.5,5.2,6.4,9.1,12.1,9.1h55.8
					c6.9,0,12.6-5.7,12.6-12.6v-17.2l1.8,0.1c13.2,0,23.9-10.7,23.9-23.9c0-13.2-10.7-23.9-23.9-23.9l-1.8,0.1v-12.7
					c0-3.5-2.8-6.3-6.3-6.3h-1.8V893L1046.8,898L1046.8,898z M1055,906.5v-5v-20.7c0.6-0.1,1.2-0.1,1.8-0.1
					c8.1,0,14.7,6.6,14.7,14.7c0,8.1-6.6,14.7-14.7,14.7c-0.6,0-1.2,0-1.8-0.1V906.5z"/>
				<path class="st18" d="M1033.6,868.8h10.5c0.9,0,1.6,0.7,1.6,1.6v14.2c0,0.9-0.7,1.6-1.6,1.6h-10.5c-0.9,0-1.6-0.7-1.6-1.6v-14.2
					C1032,869.5,1032.7,868.8,1033.6,868.8z"/>
			</g>
			<path class="st26" d="M1040.9,831.6h-24.9c-1.7,0-3.2-1.4-3.2-3.2l0,0c0-1.7,1.4-3.2,3.2-3.2h19.4c2,0,3.6-1.6,3.6-3.6v0
				c0-2-1.6-3.6-3.6-3.6h-11.5c-1.7,0-3.2-1.4-3.2-3.2l0,0c0-1.7,1.4-3.2,3.2-3.2h6.6c2,0,3.6-1.6,3.6-3.6l0,0c0-2-1.6-3.6-3.6-3.6
				h-13c-1.9,0-3.5-1.6-3.5-3.5l0,0c0-1.9,1.6-3.5,3.5-3.5h20.8c2.4,0,4.4-2,4.4-4.4l0,0c0-2.4-2-4.4-4.4-4.4H976
				c-2.4,0-4.4,2-4.4,4.4l0,0c0,2.4,2,4.4,4.4,4.4h22.6c1.9,0,3.5,1.6,3.5,3.5l0,0c0,1.9-1.6,3.5-3.5,3.5h-26.7
				c-2,0-3.6,1.6-3.6,3.6l0,0c0,2,1.6,3.6,3.6,3.6h34.8c1.7,0,3.2,1.4,3.2,3.2l0,0c0,1.7-1.4,3.2-3.2,3.2h-11.5
				c-2,0-3.6,1.6-3.6,3.6v0c0,2,1.6,3.6,3.6,3.6h3.6c1.7,0,3.2,1.4,3.2,3.2l0,0c0,1.7-1.4,3.2-3.2,3.2h-10.2c-2,0-3.6,1.6-3.6,3.6
				l0,0c0,2,1.6,3.6,3.6,3.6h52.2c2,0,3.6-1.6,3.6-3.6l0,0C1044.5,833.2,1042.9,831.6,1040.9,831.6L1040.9,831.6z M960.8,788.7h-0.9
				c-2.4,0-4.4,2-4.4,4.4l0,0c0,2.4,2,4.4,4.4,4.4h0.9c2.4,0,4.4-2,4.4-4.4l0,0C965.2,790.7,963.2,788.7,960.8,788.7L960.8,788.7z
				 M1052.6,788.7h-0.9c-2.4,0-4.4,2-4.4,4.4l0,0c0,2.4,2,4.4,4.4,4.4h0.9c2.4,0,4.4-2,4.4-4.4l0,0
				C1057,790.7,1055,788.7,1052.6,788.7z"/>
			<g>
				<path class="st16" d="M426.5,763.7h64.2c6.4,0,11.6,5.2,11.6,11.6v152.6c0,6.4-5.2,11.6-11.6,11.6h-64.2
					c-6.4,0-11.6-5.2-11.6-11.6V775.3C414.9,768.9,420.1,763.7,426.5,763.7z"/>
				<path class="st17" d="M426.1,790.6h65c2.6,0,4.7,2.1,4.7,4.7v106.3c0,2.6-2.1,4.7-4.7,4.7h-65c-2.6,0-4.7-2.1-4.7-4.7V795.3
					C421.3,792.7,423.5,790.6,426.1,790.6z"/>
				<path class="st27" d="M494.5,792c0.8,0.9,1.3,2,1.3,3.3v106.3c0,2.6-2.1,4.7-4.7,4.7h-65c-0.9,0-1.8-0.3-2.5-0.7L494.5,792z"/>
				<path class="st28" d="M458.6,933.2c5.5,0,10-4.5,10-10c0-5.5-4.5-10-10-10c-5.5,0-10,4.5-10,10
					C448.6,928.7,453.1,933.2,458.6,933.2z"/>
				<path class="st8" d="M458.6,928.7c3,0,5.5-2.5,5.5-5.5c0-3-2.5-5.5-5.5-5.5c-3,0-5.5,2.5-5.5,5.5
					C453,926.2,455.5,928.7,458.6,928.7z"/>
				<g>
					<path class="st8" d="M443.3,776.2h18.9c1.3,0,2.3,1,2.3,2.3l0,0c0,1.3-1,2.3-2.3,2.3h-18.9c-1.3,0-2.3-1-2.3-2.3l0,0
						C441,777.3,442.1,776.2,443.3,776.2z"/>
					<path class="st8" d="M470.9,776.2h2.9c1.3,0,2.3,1,2.3,2.3l0,0c0,1.3-1,2.3-2.3,2.3h-2.9c-1.3,0-2.3-1-2.3-2.3l0,0
						C468.6,777.3,469.6,776.2,470.9,776.2z"/>
				</g>
				<path class="st29" d="M498.4,884.6v38.6c0,6.4-5.2,11.6-11.6,11.6h-64.2c-2.5,0-4.9-0.8-6.8-2.2c1.8,4.1,5.9,7,10.6,7h64.2
					c6.4,0,11.6-5.2,11.6-11.6v-40.3v-81.9v-30.4c0-3.8-1.9-7.3-4.8-9.4c0.6,1.4,1,3,1,4.6v34.4L498.4,884.6L498.4,884.6z"/>
			</g>
			<g>
				<path class="st18" d="M441.3,607.6h40.9c1.8,0,3.3,1.5,3.3,3.3v4h73.7c3.3,0,6.1,2.7,6.1,6.1v74.2c0,3.3-2.7,6.1-6.1,6.1H444
					c-3.3,0-6.1-2.7-6.1-6.1v-4.7V621v-10.1C437.9,609.1,439.4,607.6,441.3,607.6z"/>
				<path class="st8" d="M457.4,624.7h88.4c1.7,0,3.2,1.4,3.2,3.2v23.4c0,1.7-1.4,3.2-3.2,3.2h-88.4c-1.7,0-3.2-1.4-3.2-3.2v-23.4
					C454.2,626.1,455.7,624.7,457.4,624.7z"/>
				<path class="st30" d="M444,637.8h115.2c3.3,0,6.1,2.7,6.1,6.1v74.2c0,3.3-2.7,6.1-6.1,6.1H444c-3.3,0-6.1-2.7-6.1-6.1v-74.2
					C437.9,640.6,440.7,637.8,444,637.8z"/>
				<path class="st17" d="M494.1,652.7h3.5c1.9,0,3.5,1.6,3.5,3.5l0,0c0,1.9-1.6,3.5-3.5,3.5h-3.5c-1.9,0-3.5-1.6-3.5-3.5l0,0
					C490.7,654.3,492.2,652.7,494.1,652.7z"/>
				<path class="st8" d="M507.8,652.7h28.6c1.9,0,3.5,1.6,3.5,3.5l0,0c0,1.9-1.6,3.5-3.5,3.5h-28.6c-1.9,0-3.5-1.6-3.5-3.5l0,0
					C504.3,654.3,505.9,652.7,507.8,652.7z"/>
				<path class="st18" d="M543.1,666.5h3.5c1.9,0,3.5,1.6,3.5,3.5l0,0c0,1.9-1.6,3.5-3.5,3.5h-3.5c-1.9,0-3.5-1.6-3.5-3.5l0,0
					C539.6,668,541.2,666.5,543.1,666.5z"/>
				<path class="st8" d="M511.7,666.5h19.6c1.9,0,3.5,1.6,3.5,3.5l0,0c0,1.9-1.6,3.5-3.5,3.5h-19.6c-1.9,0-3.5-1.6-3.5-3.5l0,0
					C508.3,668,509.8,666.5,511.7,666.5z"/>
				<path class="st7" d="M502,680.2h3.5c1.9,0,3.5,1.6,3.5,3.5l0,0c0,1.9-1.6,3.5-3.5,3.5H502c-1.9,0-3.5-1.6-3.5-3.5l0,0
					C498.5,681.8,500.1,680.2,502,680.2z"/>
				<path class="st8" d="M515.7,680.2h24.5c1.9,0,3.5,1.6,3.5,3.5l0,0c0,1.9-1.6,3.5-3.5,3.5h-24.5c-1.9,0-3.5-1.6-3.5-3.5l0,0
					C512.2,681.8,513.8,680.2,515.7,680.2z"/>
			</g>
			<g>
				<path class="st31" d="M438.9,438.1h119.7c3.3,0,6.1,2.7,6.1,6.1v78.1c0,3.3-2.7,6.1-6.1,6.1H438.9c-3.3,0-6.1-2.7-6.1-6.1v-78.1
					C432.8,440.9,435.5,438.1,438.9,438.1z"/>
				<path class="st32" d="M563,526.4c-1.1,1.2-2.7,2-4.5,2H438.9c-1.8,0-3.4-0.8-4.5-2l64.3-57.2L563,526.4z"/>
				<path class="st8" d="M438.9,438.1h119.7c2,0,3.7,1,4.8,2.4l-64.7,57.6L434,440.6C435.1,439.1,436.9,438.1,438.9,438.1z"/>
			</g>
			<g>
				<path class="st8" d="M210.8,552.9c-7.6,0-13.7-6.1-13.7-13.7c0-6.5,4.5-11.9,10.6-13.3c-0.3-1.8-0.5-3.7-0.5-5.6
					c0-18,14.6-32.6,32.6-32.6c16.4,0,30,12.1,32.3,27.9c1.7-0.5,3.6-0.8,5.5-0.8c10.5,0,19.1,8.5,19.1,19.1c0,0.8-0.1,1.7-0.2,2.5
					c4.5,0.1,8.1,3.8,8.1,8.3c0,4.6-3.7,8.3-8.3,8.3h-18.7h-37.8L210.8,552.9L210.8,552.9z"/>
				<path class="st33" d="M300.6,539.6c0,4.6-3.7,8.3-8.3,8.3h-18.7h-37.8h-29.1c-3.2,0-6.1-1.1-8.5-2.9c2.2,4.7,6.9,7.9,12.4,7.9
					h29.1h37.8h18.7c4.6,0,8.3-3.7,8.3-8.3c0-3.1-1.7-5.8-4.3-7.2C300.5,538,300.6,538.8,300.6,539.6z"/>
			</g>
			<g>
				<path class="st8" d="M203.6,577.7h92.6c3.2,0,5.8,2.6,5.8,5.8c0,42.8,0,85.5,0,128.3c0,7.9-6.5,14.3-14.3,14.3h-75.5
					c-7.9,0-14.3-6.5-14.3-14.3c0-42.8,0-85.5,0-128.3C197.9,580.3,200.5,577.7,203.6,577.7z"/>
				<path class="st34" d="M327,705.5H226.5v6.3c0,7.9-6.5,14.3-14.3,14.3h100.5c7.9,0,14.3-6.5,14.3-14.3V705.5z"/>
				<g>
					<path class="st16" d="M214.5,608.2h3.9c1.6,0,2.9,1.3,2.9,2.9l0,0c0,1.6-1.3,2.9-2.9,2.9h-3.9c-1.6,0-2.9-1.3-2.9-2.9l0,0
						C211.7,609.5,212.9,608.2,214.5,608.2z"/>
					<path class="st16" d="M227,608.2h13.2c1.6,0,2.9,1.3,2.9,2.9l0,0c0,1.6-1.3,2.9-2.9,2.9H227c-1.6,0-2.9-1.3-2.9-2.9l0,0
						C224.2,609.5,225.5,608.2,227,608.2z"/>
					<path class="st16" d="M218.1,619.5h3.9c1.6,0,2.9,1.3,2.9,2.9l0,0c0,1.6-1.3,2.9-2.9,2.9h-3.9c-1.6,0-2.9-1.3-2.9-2.9l0,0
						C215.3,620.8,216.6,619.5,218.1,619.5z"/>
					<path class="st16" d="M230.6,619.5h13.2c1.6,0,2.9,1.3,2.9,2.9l0,0c0,1.6-1.3,2.9-2.9,2.9h-13.2c-1.6,0-2.9-1.3-2.9-2.9l0,0
						C227.8,620.8,229.1,619.5,230.6,619.5z"/>
					<path class="st16" d="M221.7,630.7h3.9c1.6,0,2.9,1.3,2.9,2.9l0,0c0,1.6-1.3,2.9-2.9,2.9h-3.9c-1.6,0-2.9-1.3-2.9-2.9l0,0
						C218.9,632,220.2,630.7,221.7,630.7z"/>
					<path class="st16" d="M234.2,630.7h26.9c1.6,0,2.9,1.3,2.9,2.9l0,0c0,1.6-1.3,2.9-2.9,2.9h-26.9c-1.6,0-2.9-1.3-2.9-2.9l0,0
						C231.4,632,232.7,630.7,234.2,630.7z"/>
					<path class="st16" d="M225.3,642h3.9c1.6,0,2.9,1.3,2.9,2.9l0,0c0,1.6-1.3,2.9-2.9,2.9h-3.9c-1.6,0-2.9-1.3-2.9-2.9l0,0
						C222.5,643.3,223.8,642,225.3,642z"/>
					<path class="st16" d="M237.8,642h18.7c1.6,0,2.9,1.3,2.9,2.9l0,0c0,1.6-1.3,2.9-2.9,2.9h-18.7c-1.6,0-2.9-1.3-2.9-2.9l0,0
						C235,643.3,236.3,642,237.8,642z"/>
					<path class="st16" d="M228.9,653.3h3.9c1.6,0,2.9,1.3,2.9,2.9l0,0c0,1.6-1.3,2.9-2.9,2.9h-3.9c-1.6,0-2.9-1.3-2.9-2.9l0,0
						C226.1,654.5,227.4,653.3,228.9,653.3z"/>
					<path class="st16" d="M241.5,653.3h23.1c1.6,0,2.9,1.3,2.9,2.9l0,0c0,1.6-1.3,2.9-2.9,2.9h-23.1c-1.6,0-2.9-1.3-2.9-2.9l0,0
						C238.6,654.5,239.9,653.3,241.5,653.3z"/>
					<path class="st16" d="M227.2,664.5h3.9c1.6,0,2.9,1.3,2.9,2.9l0,0c0,1.6-1.3,2.9-2.9,2.9h-3.9c-1.6,0-2.9-1.3-2.9-2.9l0,0
						C224.4,665.8,225.7,664.5,227.2,664.5z"/>
					<path class="st16" d="M239.8,664.5H253c1.6,0,2.9,1.3,2.9,2.9l0,0c0,1.6-1.3,2.9-2.9,2.9h-13.2c-1.6,0-2.9-1.3-2.9-2.9l0,0
						C236.9,665.8,238.2,664.5,239.8,664.5z"/>
					<path class="st16" d="M218.1,675.8h3.9c1.6,0,2.9,1.3,2.9,2.9v0c0,1.6-1.3,2.9-2.9,2.9h-3.9c-1.6,0-2.9-1.3-2.9-2.9v0
						C215.3,677.1,216.6,675.8,218.1,675.8z"/>
					<path class="st16" d="M234.3,675.8h13.2c1.6,0,2.9,1.3,2.9,2.9v0c0,1.6-1.3,2.9-2.9,2.9h-13.2c-1.6,0-2.9-1.3-2.9-2.9v0
						C231.5,677.1,232.7,675.8,234.3,675.8z"/>
					<path class="st16" d="M223.3,687h3.9c1.6,0,2.9,1.3,2.9,2.9v0c0,1.6-1.3,2.9-2.9,2.9h-3.9c-1.6,0-2.9-1.3-2.9-2.9v0
						C220.5,688.3,221.8,687,223.3,687z"/>
					<path class="st16" d="M235.9,687h39.6c1.6,0,2.9,1.3,2.9,2.9v0c0,1.6-1.3,2.9-2.9,2.9h-39.6c-1.6,0-2.9-1.3-2.9-2.9v0
						C233,688.3,234.3,687,235.9,687z"/>
					<path class="st16" d="M214.9,698.3h3.9c1.6,0,2.9,1.3,2.9,2.9v0c0,1.6-1.3,2.9-2.9,2.9h-3.9c-1.6,0-2.9-1.3-2.9-2.9v0
						C212,699.6,213.3,698.3,214.9,698.3z"/>
					<path class="st16" d="M286.7,687h3.9c1.6,0,2.9,1.3,2.9,2.9v0c0,1.6-1.3,2.9-2.9,2.9h-3.9c-1.6,0-2.9-1.3-2.9-2.9v0
						C283.9,688.3,285.2,687,286.7,687z"/>
					<path class="st16" d="M257,675.8h1.9c1.6,0,2.9,1.3,2.9,2.9v0c0,1.6-1.3,2.9-2.9,2.9H257c-1.6,0-2.9-1.3-2.9-2.9v0
						C254.1,677.1,255.4,675.8,257,675.8z"/>
					<path class="st16" d="M270,675.8h1.9c1.6,0,2.9,1.3,2.9,2.9v0c0,1.6-1.3,2.9-2.9,2.9H270c-1.6,0-2.9-1.3-2.9-2.9v0
						C267.2,677.1,268.4,675.8,270,675.8z"/>
					<path class="st16" d="M254.4,619.5h3.9c1.6,0,2.9,1.3,2.9,2.9l0,0c0,1.6-1.3,2.9-2.9,2.9h-3.9c-1.6,0-2.9-1.3-2.9-2.9l0,0
						C251.6,620.8,252.8,619.5,254.4,619.5z"/>
					<path class="st16" d="M271.5,619.5h3.9c1.6,0,2.9,1.3,2.9,2.9l0,0c0,1.6-1.3,2.9-2.9,2.9h-3.9c-1.6,0-2.9-1.3-2.9-2.9l0,0
						C268.7,620.8,270,619.5,271.5,619.5z"/>
				</g>
				<path class="st7" d="M250,601.8c3.3,0,6.1-2.7,6.1-6.1s-2.7-6.1-6.1-6.1s-6.1,2.7-6.1,6.1S246.6,601.8,250,601.8z"/>
			</g>
			<g>
				<path class="st7" d="M440.2,372.1h36.5c4.1,0,7.4,3.3,7.4,7.4V416c0,4.1-3.3,7.4-7.4,7.4h-36.5c-4.1,0-7.4-3.3-7.4-7.4v-36.5
					C432.8,375.5,436.1,372.1,440.2,372.1z"/>
				<path class="st8" d="M465,383c2.3-2.3,5.9-2.3,8.2,0c2.3,2.3,2.3,5.9,0,8.2l-6.5,6.5l6.5,6.6c2.3,2.3,2.3,5.9,0,8.2
					c-2.3,2.3-5.9,2.3-8.2,0l-6.6-6.6l-6.5,6.6c-2.3,2.3-5.9,2.3-8.2,0c-2.3-2.3-2.3-5.9,0-8.2l6.6-6.6l-6.6-6.5
					c-2.3-2.3-2.3-5.9,0-8.2c2.3-2.3,5.9-2.3,8.2,0l6.5,6.6L465,383z"/>
			</g>
			<path class="st26" d="M218,760c3.7,0.8,7.1,2.3,10.2,4.2l4.7-4.7c0.7-0.7,1.8-0.7,2.4,0l7.1,7.1c0.7,0.7,0.7,1.8,0,2.4l-4.7,4.7
				c2,3.1,3.4,6.5,4.2,10.2h6.6c0.9,0,1.7,0.8,1.7,1.7v10.1c0,0.9-0.8,1.7-1.7,1.7H242c-0.8,3.7-2.3,7.1-4.2,10.2l4.7,4.7
				c0.7,0.7,0.7,1.8,0,2.4l-7.1,7.1c-0.7,0.7-1.8,0.7-2.4,0l-4.7-4.7c-3.1,2-6.5,3.4-10.2,4.2v6.6c0,0.9-0.8,1.7-1.7,1.7h-10.1
				c-0.9,0-1.7-0.8-1.7-1.7v-6.6c-3.7-0.8-7.1-2.3-10.2-4.2l-4.7,4.7c-0.7,0.7-1.8,0.7-2.4,0l-7.1-7.1c-0.7-0.7-0.7-1.8,0-2.4
				l4.7-4.7c-2-3.1-3.4-6.5-4.2-10.2h-6.6c-0.9,0-1.7-0.8-1.7-1.7v-10.1c0-0.9,0.8-1.7,1.7-1.7h6.6c0.8-3.7,2.3-7.1,4.2-10.2
				l-4.7-4.7c-0.7-0.7-0.7-1.8,0-2.4l7.1-7.1c0.7-0.7,1.8-0.7,2.4,0l4.7,4.7c3.1-2,6.5-3.4,10.2-4.2v-6.6c0-0.9,0.8-1.7,1.7-1.7
				h10.1c0.9,0,1.7,0.8,1.7,1.7V760L218,760z M211.3,773.8c-9.3,0-16.8,7.5-16.8,16.8c0,9.3,7.5,16.8,16.8,16.8
				c9.3,0,16.8-7.5,16.8-16.8C228.1,781.4,220.6,773.8,211.3,773.8z"/>
			<g>
				<path class="st7" d="M157.4,577.7h22.7c2.5,0,4.6,2.1,4.6,4.6v22.7c0,2.5-2.1,4.6-4.6,4.6h-22.7c-2.5,0-4.6-2.1-4.6-4.6v-22.7
					C152.8,579.8,154.8,577.7,157.4,577.7z"/>
				<path class="st8" d="M172.8,587.8c1.4-1.4,3.7-1.4,5.1,0c1.4,1.4,1.4,3.7,0,5.1l-6.6,6.6c-1.4,1.4-3.7,1.4-5.1,0l-6.6-6.6
					c-1.4-1.4-1.4-3.7,0-5.1c1.4-1.4,3.7-1.4,5.1,0l4.1,4.1L172.8,587.8z"/>
			</g>
			<g>
				<path class="st7" d="M157.4,631.7h22.7c2.5,0,4.6,2.1,4.6,4.6V659c0,2.5-2.1,4.6-4.6,4.6h-22.7c-2.5,0-4.6-2.1-4.6-4.6v-22.7
					C152.8,633.7,154.8,631.7,157.4,631.7z"/>
				<path class="st8" d="M172.8,641.8c1.4-1.4,3.7-1.4,5.1,0c1.4,1.4,1.4,3.7,0,5.1l-6.6,6.6c-1.4,1.4-3.7,1.4-5.1,0l-6.6-6.6
					c-1.4-1.4-1.4-3.7,0-5.1c1.4-1.4,3.7-1.4,5.1,0l4.1,4.1L172.8,641.8z"/>
			</g>
			<g>
				<path class="st7" d="M157.4,685.6h22.7c2.5,0,4.6,2.1,4.6,4.6v22.7c0,2.5-2.1,4.6-4.6,4.6h-22.7c-2.5,0-4.6-2.1-4.6-4.6v-22.7
					C152.8,687.7,154.8,685.6,157.4,685.6z"/>
				<path class="st8" d="M172.8,695.7c1.4-1.4,3.7-1.4,5.1,0c1.4,1.4,1.4,3.7,0,5.1l-6.6,6.6c-1.4,1.4-3.7,1.4-5.1,0l-6.6-6.6
					c-1.4-1.4-1.4-3.7,0-5.1c1.4-1.4,3.7-1.4,5.1,0l4.1,4.1L172.8,695.7z"/>
			</g>
			<g>
				<path class="st26" d="M497.2,374.8h42.1c2,0,3.6,1.6,3.6,3.6l0,0c0,2-1.6,3.6-3.6,3.6h-42.1c-2,0-3.5-1.6-3.5-3.6l0,0
					C493.6,376.4,495.2,374.8,497.2,374.8z"/>
				<path class="st26" d="M552.1,374.8h5c2,0,3.6,1.6,3.6,3.6l0,0c0,2-1.6,3.6-3.6,3.6h-5c-2,0-3.6-1.6-3.6-3.6l0,0
					C548.6,376.4,550.2,374.8,552.1,374.8z"/>
				<path class="st26" d="M497.2,391.5h21.9c2,0,3.6,1.6,3.6,3.6l0,0c0,2-1.6,3.6-3.6,3.6h-21.9c-2,0-3.5-1.6-3.5-3.6l0,0
					C493.6,393.1,495.2,391.5,497.2,391.5z"/>
				<path class="st26" d="M529.6,391.5L529.6,391.5c2,0,3.6,1.6,3.6,3.6l0,0c0,2-1.6,3.6-3.6,3.6h0c-2,0-3.5-1.6-3.5-3.6l0,0
					C526.1,393.1,527.7,391.5,529.6,391.5z"/>
				<path class="st26" d="M557.1,408.2H515c-2,0-3.5,1.6-3.5,3.6l0,0c0,2,1.6,3.6,3.5,3.6h42.1c2,0,3.6-1.6,3.6-3.6l0,0
					C560.7,409.8,559.1,408.2,557.1,408.2z"/>
				<path class="st26" d="M502.2,408.2h-5c-2,0-3.5,1.6-3.5,3.6l0,0c0,2,1.6,3.6,3.5,3.6h5c2,0,3.6-1.6,3.6-3.6l0,0
					C505.7,409.8,504.1,408.2,502.2,408.2z"/>
				<path class="st26" d="M544.8,391.5h12.4c2,0,3.6,1.6,3.6,3.6l0,0c0,2-1.6,3.6-3.6,3.6h-12.4c-2,0-3.5-1.6-3.5-3.6l0,0
					C541.2,393.1,542.8,391.5,544.8,391.5z"/>
			</g>
			<g>
				<path class="st26" d="M325.4,599.7c3.1,0,5.9,1.3,7.9,3.3c2,2,3.3,4.8,3.3,7.9c0,3.1-1.2,5.9-3.3,7.9c-2,2-4.8,3.3-7.9,3.3
					c-3.1,0-5.9-1.3-7.9-3.3c-2-2-3.3-4.8-3.3-7.9c0-3.1,1.2-5.9,3.3-7.9C319.5,601,322.3,599.7,325.4,599.7L325.4,599.7z
					 M329,607.2c-0.9-0.9-2.2-1.5-3.7-1.5c-1.4,0-2.7,0.6-3.7,1.5c-0.9,0.9-1.5,2.2-1.5,3.7c0,1.4,0.6,2.7,1.5,3.7
					c0.9,0.9,2.2,1.5,3.7,1.5c1.4,0,2.7-0.6,3.7-1.5c0.9-0.9,1.5-2.2,1.5-3.7C330.5,609.4,330,608.2,329,607.2z"/>
				<path class="st26" d="M414.5,673.9c3.1,0,5.9,1.3,7.9,3.3c2,2,3.3,4.8,3.3,7.9s-1.2,5.9-3.3,7.9c-2,2-4.8,3.3-7.9,3.3
					c-3.1,0-5.9-1.3-7.9-3.3c-2-2-3.3-4.8-3.3-7.9s1.2-5.9,3.3-7.9C408.7,675.2,411.5,673.9,414.5,673.9L414.5,673.9z M418.2,681.4
					c-0.9-0.9-2.2-1.5-3.7-1.5c-1.4,0-2.7,0.6-3.7,1.5c-0.9,0.9-1.5,2.2-1.5,3.7c0,1.4,0.6,2.7,1.5,3.7c0.9,0.9,2.2,1.5,3.7,1.5
					c1.4,0,2.7-0.6,3.7-1.5c0.9-0.9,1.5-2.2,1.5-3.7C419.7,683.6,419.1,682.4,418.2,681.4z"/>
				<path class="st26" d="M333.5,613.9c-1.6,0-3-1.3-3-3c0-1.6,1.3-3,3-3h27.9c3.9,0,7.4,1.6,9.9,4.1l0.2,0.2c2.4,2.5,3.9,6,3.9,9.7
					V674c0,2.2,0.9,4.2,2.4,5.7l0,0c1.5,1.5,3.5,2.4,5.7,2.4h22.9c1.6,0,3,1.3,3,3s-1.3,3-3,3h-22.9c-3.8,0-7.3-1.6-9.9-4.1l0,0
					c-2.5-2.5-4.1-6.1-4.1-9.9v-52.1c0-2.1-0.9-4.1-2.2-5.6l-0.1-0.1c-1.5-1.5-3.5-2.4-5.7-2.4L333.5,613.9L333.5,613.9z"/>
			</g>
			<g>
				<path class="st26" d="M498.7,535.3c3.1,0,5.9,1.2,7.9,3.3c2,2,3.3,4.8,3.3,7.9c0,3.1-1.2,5.9-3.3,7.9c-2,2-4.8,3.3-7.9,3.3
					c-3.1,0-5.9-1.2-7.9-3.3c-2-2-3.3-4.8-3.3-7.9c0-3.1,1.2-5.9,3.3-7.9C492.8,536.5,495.6,535.3,498.7,535.3L498.7,535.3z
					 M502.4,542.8c-0.9-0.9-2.2-1.5-3.7-1.5c-1.4,0-2.7,0.6-3.7,1.5c-0.9,0.9-1.5,2.2-1.5,3.7s0.6,2.7,1.5,3.7
					c0.9,0.9,2.2,1.5,3.7,1.5c1.4,0,2.7-0.6,3.7-1.5c0.9-0.9,1.5-2.2,1.5-3.7C503.9,545,503.3,543.7,502.4,542.8z"/>
				<path class="st26" d="M498.7,580.2c3.1,0,5.9,1.3,7.9,3.3c2,2,3.3,4.8,3.3,7.9c0,3.1-1.2,5.9-3.3,7.9c-2,2-4.8,3.3-7.9,3.3
					c-3.1,0-5.9-1.3-7.9-3.3c-2-2-3.3-4.8-3.3-7.9c0-3.1,1.2-5.9,3.3-7.9C492.8,581.4,495.6,580.2,498.7,580.2L498.7,580.2z
					 M502.4,587.6c-0.9-0.9-2.2-1.5-3.7-1.5c-1.4,0-2.7,0.6-3.7,1.5c-0.9,0.9-1.5,2.2-1.5,3.7c0,1.4,0.6,2.7,1.5,3.7
					c0.9,0.9,2.2,1.5,3.7,1.5c1.4,0,2.7-0.6,3.7-1.5c0.9-0.9,1.5-2.2,1.5-3.7C503.9,589.9,503.3,588.6,502.4,587.6z"/>
				<path class="st26" d="M495.7,554.6c0-1.6,1.3-3,3-3c1.6,0,3,1.3,3,3v28.6c0,1.6-1.3,3-3,3c-1.6,0-3-1.3-3-3V554.6z"/>
			</g>
			<g>
				<path class="st26" d="M1184.1,663.8c-1.4,0-2.7,0.6-3.7,1.5c-0.9,0.9-1.5,2.2-1.5,3.7s0.6,2.7,1.5,3.7c0.9,0.9,2.2,1.5,3.7,1.5
					c1.4,0,2.7-0.6,3.7-1.5c0.9-0.9,1.5-2.2,1.5-3.7s-0.6-2.7-1.5-3.7C1186.8,664.4,1185.5,663.8,1184.1,663.8L1184.1,663.8z
					 M1176.2,661.1c2-2,4.8-3.3,7.9-3.3c3.1,0,5.9,1.2,7.9,3.3s3.3,4.8,3.3,7.9c0,3.1-1.3,5.9-3.3,7.9c-2,2-4.8,3.3-7.9,3.3
					c-3.1,0-5.9-1.2-7.9-3.3c-2-2-3.3-4.8-3.3-7.9C1173,665.9,1174.2,663.1,1176.2,661.1z"/>
				<path class="st26" d="M933.6,756.9c-1.4,0-2.7,0.6-3.7,1.5c-0.9,0.9-1.5,2.2-1.5,3.7s0.6,2.7,1.5,3.7c0.9,0.9,2.2,1.5,3.7,1.5
					c1.4,0,2.7-0.6,3.7-1.5c0.9-0.9,1.5-2.2,1.5-3.7s-0.6-2.7-1.5-3.7C936.4,757.5,935.1,756.9,933.6,756.9L933.6,756.9z
					 M925.8,754.2c2-2,4.8-3.3,7.9-3.3c3.1,0,5.9,1.2,7.9,3.3c2,2,3.3,4.8,3.3,7.9c0,3.1-1.3,5.9-3.3,7.9c-2,2-4.8,3.3-7.9,3.3
					c-3.1,0-5.9-1.2-7.9-3.3c-2-2-3.3-4.8-3.3-7.9C922.5,759,923.7,756.3,925.8,754.2z"/>
				<path class="st26" d="M1175.9,666c1.6,0,3,1.3,3,3c0,1.6-1.3,3-3,3h-27.9c-2.2,0-4.2,0.9-5.7,2.4c-1.5,1.5-2.4,3.5-2.4,5.7v71
					c0,3.9-1.6,7.4-4.1,9.9l0,0c-2.5,2.5-6.1,4.1-9.9,4.1H941.8c-1.6,0-3-1.3-3-3c0-1.6,1.3-3,3-3H1126c2.2,0,4.2-0.9,5.7-2.4
					c1.5-1.5,2.4-3.5,2.4-5.7v-71c0-3.9,1.6-7.4,4.1-9.9s6.1-4.1,9.9-4.1L1175.9,666L1175.9,666z"/>
			</g>
			<g>
				<path class="st26" d="M996.9,488.7c3.1,0,5.9,1.2,7.9,3.3c2,2,3.3,4.8,3.3,7.9c0,3.1-1.3,5.9-3.3,7.9c-2,2-4.8,3.3-7.9,3.3
					c-3.1,0-5.9-1.3-7.9-3.3c-2-2-3.3-4.8-3.3-7.9c0-3.1,1.2-5.9,3.3-7.9C991,490,993.8,488.7,996.9,488.7L996.9,488.7z
					 M1000.6,496.2c-0.9-0.9-2.2-1.5-3.7-1.5c-1.4,0-2.7,0.6-3.7,1.5c-0.9,0.9-1.5,2.2-1.5,3.7c0,1.4,0.6,2.7,1.5,3.7
					c0.9,0.9,2.2,1.5,3.7,1.5c1.4,0,2.7-0.6,3.7-1.5c0.9-0.9,1.5-2.2,1.5-3.7C1002.1,498.4,1001.5,497.1,1000.6,496.2z"/>
				<path class="st26" d="M996.9,533.6c3.1,0,5.9,1.3,7.9,3.3c2,2,3.3,4.8,3.3,7.9c0,3.1-1.3,5.9-3.3,7.9c-2,2-4.8,3.3-7.9,3.3
					c-3.1,0-5.9-1.2-7.9-3.3c-2-2-3.3-4.8-3.3-7.9c0-3.1,1.2-5.9,3.3-7.9C991,534.9,993.8,533.6,996.9,533.6L996.9,533.6z
					 M1000.6,541.1c-0.9-0.9-2.2-1.5-3.7-1.5c-1.4,0-2.7,0.6-3.7,1.5c-0.9,0.9-1.5,2.2-1.5,3.7c0,1.4,0.6,2.7,1.5,3.7
					c0.9,0.9,2.2,1.5,3.7,1.5c1.4,0,2.7-0.6,3.7-1.5c0.9-0.9,1.5-2.2,1.5-3.7C1002.1,543.3,1001.5,542,1000.6,541.1z"/>
				<path class="st26" d="M993.9,508c0-1.6,1.3-3,3-3s3,1.3,3,3v28.6c0,1.6-1.3,3-3,3s-3-1.3-3-3V508z"/>
			</g>
			<g>
				<path class="st26" d="M1075.7,429.3h51.2c0.9,0,1.8,0.4,2.3,1.1l16.5,18.4c0.5,0.6,0.8,1.3,0.8,2l0,77.3c0,2.1-0.9,4.1-2.3,5.5
					c-1.4,1.4-3.3,2.3-5.5,2.3h-63.1c-2.1,0-4.1-0.9-5.5-2.3l-0.2-0.2c-1.3-1.4-2.1-3.2-2.1-5.2v-91c0-2.1,0.9-4.1,2.3-5.5
					C1071.7,430.1,1073.6,429.3,1075.7,429.3L1075.7,429.3z M1125.6,435.2h-49.9c-0.5,0-0.9,0.2-1.2,0.5c-0.3,0.3-0.5,0.8-0.5,1.2
					v91c0,0.4,0.2,0.8,0.4,1.1l0.1,0.1c0.3,0.3,0.8,0.5,1.2,0.5h63.1c0.5,0,0.9-0.2,1.2-0.5c0.3-0.3,0.5-0.8,0.5-1.2v-76.1
					L1125.6,435.2z"/>
				<path class="st26" d="M1143.6,447.7c1.6,0,3,1.3,3,3c0,1.6-1.3,3-3,3h-16.6c-1.7,0-3-1.3-3-3v-18.5c0-1.6,1.3-3,3-3
					c1.6,0,3,1.3,3,3v15.5H1143.6z"/>
				<path class="st26" d="M1086.1,471.7c-1.6,0-3-1.3-3-3c0-1.6,1.3-3,3-3h42.4c1.6,0,3,1.3,3,3c0,1.6-1.3,3-3,3H1086.1z"/>
				<path class="st26" d="M1086.1,490.5c-1.6,0-3-1.3-3-3s1.3-3,3-3h24.5c1.6,0,3,1.3,3,3s-1.3,3-3,3H1086.1z"/>
				<path class="st26" d="M1123.3,490.5c-1.6,0-3-1.3-3-3s1.3-3,3-3h5.1c1.6,0,3,1.3,3,3s-1.3,3-3,3H1123.3z"/>
				<path class="st26" d="M1086.1,507.3c-1.6,0-3-1.3-3-3c0-1.6,1.3-3,3-3h24.5c1.6,0,3,1.3,3,3c0,1.6-1.3,3-3,3H1086.1z"/>
				<path class="st26" d="M1123.3,507.3c-1.6,0-3-1.3-3-3c0-1.6,1.3-3,3-3h5.1c1.6,0,3,1.3,3,3c0,1.6-1.3,3-3,3H1123.3z"/>
			</g>
			<g>
				<path class="st26" d="M1096,800.2h78.3c2.5,0,4.7,1,6.3,2.6l0.2,0.2c1.5,1.6,2.4,3.8,2.4,6.1v10.6c0,2.5-1,4.7-2.6,6.3l0,0
					c-1.6,1.6-3.9,2.6-6.3,2.6H1096c-2.5,0-4.7-1-6.3-2.6c-1.6-1.6-2.6-3.9-2.6-6.3v-10.6c0-2.5,1-4.7,2.6-6.3
					C1091.3,801.2,1093.6,800.2,1096,800.2L1096,800.2z M1174.3,806.2H1096c-0.8,0-1.6,0.3-2.1,0.9s-0.9,1.3-0.9,2.1v10.6
					c0,0.8,0.3,1.6,0.9,2.1c0.5,0.5,1.3,0.9,2.1,0.9h78.3c0.8,0,1.6-0.3,2.1-0.9s0.9-1.3,0.9-2.1v-10.6c0-0.8-0.3-1.5-0.8-2
					l-0.1-0.1C1175.9,806.5,1175.1,806.2,1174.3,806.2z"/>
				<path class="st26" d="M1115.1,803.2c0,1.6-1.3,3-3,3s-3-1.3-3-3v-9.9c0-2.5,1-4.7,2.6-6.3l0,0c1.6-1.6,3.9-2.6,6.3-2.6h34.1
					c2.5,0,4.7,1,6.3,2.6l0,0c1.6,1.6,2.6,3.9,2.6,6.3v9.9c0,1.6-1.3,3-3,3c-1.6,0-3-1.3-3-3v-9.9c0-0.8-0.3-1.6-0.9-2.1
					c-0.5-0.5-1.3-0.9-2.1-0.9h-34.1c-0.8,0-1.6,0.3-2.1,0.9c-0.5,0.5-0.9,1.3-0.9,2.1L1115.1,803.2L1115.1,803.2z"/>
				<path class="st26" d="M1169.9,826.2c-0.2-1.6,1-3.1,2.6-3.3c1.6-0.2,3.1,1,3.3,2.6l0.1,1.1v65.2c0,2.5-1,4.8-2.7,6.4
					c-1.6,1.7-3.9,2.7-6.4,2.7h-63.1c-2.5,0-4.8-1-6.5-2.7l-0.2-0.2c-1.5-1.6-2.5-3.8-2.5-6.2v-65.2c0-0.4,0-0.7,0.1-1.1
					c0.2-1.6,1.7-2.8,3.3-2.6c1.6,0.2,2.8,1.7,2.6,3.3l0,0.4v65.2c0,0.8,0.3,1.6,0.8,2.1l0.1,0.1c0.6,0.6,1.4,0.9,2.2,0.9h63.1
					c0.9,0,1.7-0.4,2.2-0.9c0.6-0.6,0.9-1.4,0.9-2.2C1169.9,874.4,1171.9,841.7,1169.9,826.2z"/>
				<path class="st26" d="M1120.3,883.1c0,1.6-1.3,3-3,3s-3-1.3-3-3v-42.4c0-1.6,1.3-3,3-3s3,1.3,3,3V883.1z"/>
				<path class="st26" d="M1139.1,883.1c0,1.6-1.3,3-3,3c-1.6,0-3-1.3-3-3v-24.5c0-1.6,1.3-3,3-3c1.6,0,3,1.3,3,3V883.1z"/>
				<path class="st26" d="M1139.1,845.8c0,1.6-1.3,3-3,3c-1.6,0-3-1.3-3-3v-5.1c0-1.6,1.3-3,3-3c1.6,0,3,1.3,3,3V845.8z"/>
				<path class="st26" d="M1150,840.7c0-1.6,1.3-3,3-3c1.7,0,3,1.3,3,3v24.5c0,1.6-1.3,3-3,3c-1.6,0-3-1.3-3-3V840.7z"/>
				<path class="st26" d="M1150,877.9c0-1.6,1.3-3,3-3c1.7,0,3,1.3,3,3v5.1c0,1.6-1.3,3-3,3c-1.6,0-3-1.3-3-3V877.9z"/>
			</g>
			<g>
				<path class="st26" d="M280.9,760.7h106.8c3.7,0,7.1,1.5,9.5,4c2.5,2.4,4,5.8,4,9.5v93.1c0,3.7-1.5,7.1-4,9.5l0,0
					c-2.4,2.4-5.8,4-9.5,4H280.9c-3.7,0-7.1-1.5-9.5-4l-0.2-0.2c-2.3-2.4-3.8-5.7-3.8-9.4v-93.1c0-3.7,1.5-7.1,4-9.5
					C273.8,762.3,277.2,760.7,280.9,760.7L280.9,760.7z M387.7,766.7H280.9c-2.1,0-4,0.8-5.3,2.2c-1.4,1.4-2.2,3.3-2.2,5.3v93.1
					c0,2,0.8,3.8,2.1,5.2l0.1,0.1c1.4,1.4,3.3,2.2,5.3,2.2h106.8c2.1,0,4-0.8,5.3-2.2c1.4-1.4,2.2-3.3,2.2-5.3v-93.1
					c0-2.1-0.8-4-2.2-5.3C391.7,767.6,389.8,766.7,387.7,766.7z"/>
				<path class="st26" d="M270.4,796.4c-1.6,0-3-1.3-3-3s1.3-3,3-3h127.9c1.6,0,3,1.3,3,3s-1.3,3-3,3H270.4z"/>
				<path class="st26" d="M289.1,781.7c2,0,3.7-1.7,3.7-3.7c0-2-1.7-3.7-3.7-3.7c-2,0-3.7,1.7-3.7,3.7
					C285.4,780.1,287,781.7,289.1,781.7z"/>
				<path class="st26" d="M304.1,781.7c2,0,3.7-1.7,3.7-3.7c0-2-1.7-3.7-3.7-3.7c-2,0-3.7,1.7-3.7,3.7
					C300.4,780.1,302,781.7,304.1,781.7z"/>
				<path class="st26" d="M319.1,781.7c2,0,3.7-1.7,3.7-3.7c0-2-1.7-3.7-3.7-3.7c-2,0-3.7,1.7-3.7,3.7
					C315.4,780.1,317,781.7,319.1,781.7z"/>
				<path class="st26" d="M311.4,814.9c1.2-1.2,3.1-1.2,4.2,0c1.2,1.2,1.2,3.1,0,4.2L305,829.8l10.7,10.7c1.2,1.2,1.2,3.1,0,4.2
					c-1.2,1.2-3.1,1.2-4.2,0l-12.8-12.8c-1.2-1.2-1.2-3.1,0-4.2L311.4,814.9z"/>
				<path class="st26" d="M353,819.1c-1.2-1.2-1.2-3.1,0-4.2c1.2-1.2,3.1-1.2,4.2,0l12.8,12.8c1.2,1.2,1.2,3.1,0,4.2l-12.8,12.8
					c-1.2,1.2-3.1,1.2-4.2,0c-1.2-1.2-1.2-3.1,0-4.2l10.7-10.7L353,819.1z"/>
				<path class="st26" d="M338.3,815.5c0.8-1.4,2.7-1.9,4.1-1c1.4,0.8,1.9,2.7,1,4.1l-12.9,21.9c-0.8,1.4-2.7,1.9-4.1,1
					c-1.4-0.8-1.9-2.7-1-4.1L338.3,815.5z"/>
			</g>
			<path class="st26" d="M216.2,844.4c2.7,0.6,5.2,1.6,7.4,3.1l3.4-3.4c0.5-0.5,1.3-0.5,1.8,0l5.2,5.2c0.5,0.5,0.5,1.3,0,1.8
				l-3.4,3.4c1.4,2.2,2.5,4.7,3.1,7.4h4.8c0.7,0,1.3,0.6,1.3,1.3v7.3c0,0.7-0.6,1.3-1.3,1.3h-4.8c-0.6,2.7-1.6,5.2-3.1,7.4l3.4,3.4
				c0.5,0.5,0.5,1.3,0,1.8l-5.2,5.2c-0.5,0.5-1.3,0.5-1.8,0l-3.4-3.4c-2.2,1.4-4.7,2.5-7.4,3.1v4.8c0,0.7-0.6,1.3-1.3,1.3h-7.4
				c-0.7,0-1.3-0.6-1.3-1.3v-4.8c-2.7-0.6-5.2-1.6-7.4-3.1l-3.4,3.4c-0.5,0.5-1.3,0.5-1.8,0l-5.2-5.2c-0.5-0.5-0.5-1.3,0-1.8
				l3.4-3.4c-1.4-2.2-2.5-4.7-3.1-7.4H184c-0.7,0-1.3-0.6-1.3-1.3v-7.3c0-0.7,0.6-1.3,1.3-1.3h4.8c0.6-2.7,1.6-5.2,3.1-7.4l-3.4-3.4
				c-0.5-0.5-0.5-1.3,0-1.8l5.2-5.2c0.5-0.5,1.3-0.5,1.8,0l3.4,3.4c2.2-1.4,4.7-2.5,7.4-3.1v-4.8c0-0.7,0.6-1.3,1.3-1.3h7.4
				c0.7,0,1.3,0.6,1.3,1.3V844.4L216.2,844.4z M211.3,854.5c-6.8,0-12.3,5.5-12.3,12.3s5.5,12.3,12.3,12.3c6.8,0,12.3-5.5,12.3-12.3
				S218,854.5,211.3,854.5z"/>
			<g>
				<g>
					<path class="st18" d="M418.1,297.2h485.4c1.5,2,2.4,4.4,2.4,7.1s-0.9,5.2-2.4,7.1H418.1c-3.9,0-7.1-3.2-7.1-7.1l0,0
						C411,300.4,414.2,297.2,418.1,297.2z"/>
					<path class="st8" d="M894.3,292.7c3.8,0,7.1,1.8,9.2,4.5l0.1,0.1l0,0.1l0,0l0.1,0.1l0.1,0.1l0.1,0.1l0.1,0.1l0,0l0,0.1l0.1,0.1
						l0.1,0.1l0,0l0.1,0.1l0.1,0.1l0,0l0.1,0.1l0.1,0.1l0,0.1l0,0l0.1,0.1l0.1,0.1l0.1,0.1l0.1,0.1l0,0l0,0.1l0.1,0.1l0,0.1l0,0
						l0.1,0.1l0,0.1l0,0l0,0.1l0,0.1l0,0.1l0,0l0,0.1l0,0.1l0,0l0,0.1l0,0.1l0,0l0,0.1l0,0.1l0,0.1l0,0l0,0.1l0,0.1l0,0l0,0.1l0,0.1
						l0,0.1l0,0l0,0.1l0,0.1l0,0.1l0,0.1l0,0l0,0.1l0,0.1l0,0.1l0,0l0,0.1l0,0.1v0l0,0.1l0,0.1l0,0.1l0,0l0,0.1l0,0.1l0,0.1l0,0.1
						l0,0l0,0.1l0,0.1l0,0.1l0,0l0,0.1l0,0.1v0v0.1l0,0.1l0,0.1v0.1l0,0.1v0.1v0.1l0,0.1v0l0,0.1l0,0.1v0.1v0l0,0.1l0,0.1l0,0l0,0.1
						l0,0.1l0,0.1l0,0l0,0.1l0,0.1l0,0.1l0,0.1l0,0l0,0.1l0,0.1l0,0.1v0l0,0.1l0,0.1l0,0l0,0.1l0,0.1l0,0.1l0,0l0,0.1l0,0.1l0,0.1
						l0,0.1l0,0l0,0.1l0,0.1l0,0.1l0,0l0,0.1l0,0.1l0,0l0,0.1l0,0.1l0,0.1l0,0l0,0.1l0,0.1l0,0l0,0.1l0,0.1l0,0l0,0.1l0,0.1l0,0.1
						l0,0l0,0.1l-0.1,0.1l0,0l0,0.1l-0.1,0.1l0,0.1l0,0l-0.1,0.1l-0.1,0.1l-0.1,0.1l-0.1,0.1l0,0l0,0.1l-0.1,0.1l-0.1,0.1l0,0
						l-0.1,0.1l-0.1,0.1l0,0l-0.1,0.1l-0.1,0.1l0,0.1l0,0l-0.1,0.1l-0.1,0.1l-0.1,0.1l-0.1,0.1l0,0l0,0.1l-0.1,0.1
						c-2.1,2.8-5.5,4.5-9.2,4.5c-6.4,0-11.7-5.2-11.7-11.7C882.6,297.9,887.8,292.7,894.3,292.7z"/>
				</g>
				<path class="st16" d="M1066.1,297.2H903.5c1.5,2,2.4,4.4,2.4,7.1s-0.9,5.2-2.4,7.1h162.6c3.9,0,7.1-3.2,7.1-7.1
					S1070,297.2,1066.1,297.2z"/>
			</g>
			<g>
				<path class="st35" d="M402.2,407.3c0-3.3-2.7-6-6-6c-3.3,0-6,2.7-6,6v33.1c0,3.7-1.5,7.1-3.9,9.5h0c-2.4,2.4-5.8,4-9.5,4h-10.1
					c-3.3,0-6,2.7-6,6c0,3.3,2.7,6,6,6h10.1c7,0,13.4-2.9,18-7.5l0,0c4.6-4.6,7.5-11,7.5-18L402.2,407.3L402.2,407.3z"/>
				<path class="st36" d="M363.9,533.9L363.9,533.9c9.8,0,17.9-8.1,17.9-17.9v-99.7c0-9.8-8-17.9-17.9-17.9l0,0
					c-9.8,0-17.9,8.1-17.9,17.9V516C346,525.9,354.1,533.9,363.9,533.9z"/>
				<path class="st16" d="M328.5,519.8h33.3h4.3h33.3c2.6,0,4.4,2.1,4.1,4.7l-5.5,46.2c-0.3,2.6-2.7,4.7-5.3,4.7h-26.5h-4.3h-26.5
					c-2.6,0-5-2.1-5.4-4.7l-5.5-46.2C324.1,522,325.9,519.8,328.5,519.8z"/>
				<path class="st16" d="M321.3,509.8h85.2c4.3,0,7.8,3.5,7.8,7.8l0,0c0,4.3-3.5,7.8-7.8,7.8h-85.2c-4.3,0-7.8-3.5-7.8-7.8l0,0
					C313.5,513.3,317,509.8,321.3,509.8z"/>
				<path class="st37" d="M385,529.4c8.2,0,13.1-2.3,11.2,13.4l-3.8,32c0,0.2-0.1,0.4-0.1,0.7h0.3c2.6,0,5-2.1,5.3-4.7l5.4-45.4
					h-78.8l0.5,4.1L385,529.4L385,529.4z"/>
				<path class="st23" d="M409.2,513.8c0,3.9-2.8,7.1-6.5,7.7c-0.4,0.1-0.8,0.1-1.2,0.1h-76.3h-9c-0.6,0-1.1-0.1-1.6-0.2
					c1.3,2.4,3.9,4,6.8,4h3.2h78.8h3.2c4.3,0,7.8-3.5,7.8-7.8c0-3.7-2.6-6.8-6.1-7.6C408.8,511.1,409.2,512.4,409.2,513.8z"/>
				<path class="st38" d="M371,416.3v93.5h10.8v-93.5c0-9.8-8-17.9-17.9-17.9c-1.9,0-3.7,0.3-5.4,0.8
					C365.8,401.6,371,408.4,371,416.3z"/>
				<path class="st36" d="M318.3,430.2c0-3.3,2.7-6,6-6c3.3,0,6,2.7,6,6v33.1c0,3.7,1.5,7.1,3.9,9.5h0c2.4,2.5,5.8,4,9.5,4h10.1
					c3.3,0,6,2.7,6,6c0,3.3-2.7,6-6,6h-10.1c-7,0-13.4-2.9-18-7.5l0,0c-4.6-4.6-7.5-11-7.5-18V430.2z"/>
				<path class="st35" d="M327.6,479.2L327.6,479.2L327.6,479.2z M325.8,481.3L325.8,481.3L325.8,481.3z M345.6,486.7
					c-7,0-13.4-2.9-18-7.5c-4.6-4.6-7.5-11-7.5-18v-33.1c0-1,0.2-1.9,0.7-2.8c-1.5,1.1-2.5,2.9-2.5,4.9v33.1c0,7,2.9,13.3,7.5,18
					c4.6,4.6,11,7.5,18,7.5h2.3h7.8c2.3,0,4.3-1.3,5.3-3.2c-1,0.7-2.2,1.1-3.4,1.1H346H345.6z"/>
			</g>
		</g>
		<path class="st18" d="M956.6,188.2h102.6c6.8,0,12.3,5.5,12.3,12.3l0,0c0,6.8-5.5,12.3-12.3,12.3H956.6c-6.8,0-12.3-5.5-12.3-12.3
			l0,0C944.4,193.7,949.9,188.2,956.6,188.2z"/>
		<path class="st7" d="M968.8,141.2c2,0.4,3.8,1.2,5.4,2.3l2.5-2.5c0.4-0.4,0.9-0.4,1.3,0l3.8,3.8c0.4,0.4,0.4,0.9,0,1.3l-2.5,2.5
			c1.1,1.6,1.8,3.5,2.3,5.4h3.5c0.5,0,0.9,0.4,0.9,0.9v5.4c0,0.5-0.4,0.9-0.9,0.9h-3.5c-0.4,2-1.2,3.8-2.3,5.4l2.5,2.5
			c0.4,0.4,0.4,0.9,0,1.3l-3.8,3.8c-0.4,0.4-0.9,0.4-1.3,0l-2.5-2.5c-1.6,1.1-3.5,1.8-5.4,2.3v3.5c0,0.5-0.4,0.9-0.9,0.9h-5.4
			c-0.5,0-0.9-0.4-0.9-0.9V174c-2-0.4-3.8-1.2-5.4-2.3l-2.5,2.5c-0.4,0.4-0.9,0.4-1.3,0l-3.8-3.8c-0.4-0.4-0.4-0.9,0-1.3l2.5-2.5
			c-1-1.6-1.8-3.5-2.3-5.4h-3.5c-0.5,0-0.9-0.4-0.9-0.9v-5.4c0-0.5,0.4-0.9,0.9-0.9h3.5c0.4-2,1.2-3.8,2.3-5.4l-2.5-2.5
			c-0.4-0.4-0.4-0.9,0-1.3l3.8-3.8c0.4-0.4,0.9-0.4,1.3,0l2.5,2.5c1.6-1.1,3.5-1.8,5.4-2.3v-3.5c0-0.5,0.4-0.9,0.9-0.9h5.4
			c0.5,0,0.9,0.4,0.9,0.9V141.2L968.8,141.2z M965.2,148.6c-5,0-9,4-9,9s4,9,9,9c5,0,9-4,9-9S970.2,148.6,965.2,148.6z"/>
		<path class="st17" d="M993.4,142.5h35.8c1.7,0,3.1,1.4,3.1,3.1l0,0c0,1.7-1.4,3.1-3.1,3.1h-35.8c-1.7,0-3.1-1.4-3.1-3.1l0,0
			C990.2,143.9,991.6,142.5,993.4,142.5z"/>
		<path class="st17" d="M993.4,159.7h16.3c1.7,0,3.1-1.4,3.1-3.1v0c0-1.7-1.4-3.1-3.1-3.1h-16.3c-1.7,0-3.1,1.4-3.1,3.1v0
			C990.2,158.2,991.6,159.7,993.4,159.7z"/>
		<g>
			<path class="st8" d="M955.5,193.1L955.5,193.1c2.4,0,4.4,2,4.4,4.4v5.9c0,2.4-2,4.4-4.4,4.4h0c-2.4,0-4.4-2-4.4-4.4v-5.9
				C951.1,195.1,953.1,193.1,955.5,193.1z"/>
			<path class="st8" d="M968.3,193.1L968.3,193.1c2.4,0,4.4,2,4.4,4.4v5.9c0,2.4-2,4.4-4.4,4.4l0,0c-2.4,0-4.4-2-4.4-4.4v-5.9
				C963.9,195.1,965.9,193.1,968.3,193.1z"/>
			<path class="st8" d="M981.1,193.1L981.1,193.1c2.4,0,4.4,2,4.4,4.4v5.9c0,2.4-2,4.4-4.4,4.4h0c-2.4,0-4.4-2-4.4-4.4v-5.9
				C976.7,195.1,978.7,193.1,981.1,193.1z"/>
			<path class="st8" d="M994,193.1L994,193.1c2.4,0,4.4,2,4.4,4.4v5.9c0,2.4-2,4.4-4.4,4.4l0,0c-2.4,0-4.4-2-4.4-4.4v-5.9
				C989.5,195.1,991.5,193.1,994,193.1z"/>
			<path class="st8" d="M1006.8,193.1L1006.8,193.1c2.4,0,4.4,2,4.4,4.4v5.9c0,2.4-2,4.4-4.4,4.4l0,0c-2.4,0-4.4-2-4.4-4.4v-5.9
				C1002.4,195.1,1004.4,193.1,1006.8,193.1z"/>
			<path class="st8" d="M1019.6,193.1L1019.6,193.1c2.4,0,4.4,2,4.4,4.4v5.9c0,2.4-2,4.4-4.4,4.4l0,0c-2.4,0-4.4-2-4.4-4.4v-5.9
				C1015.2,195.1,1017.2,193.1,1019.6,193.1z"/>
			<path class="st8" d="M1032.5,193.1L1032.5,193.1c2.4,0,4.4,2,4.4,4.4v5.9c0,2.4-2,4.4-4.4,4.4l0,0c-2.4,0-4.4-2-4.4-4.4v-5.9
				C1028,195.1,1030,193.1,1032.5,193.1z"/>
		</g>
		<path class="st0" d="M1277.3,256.6h-125.8c-5,0-9,4.1-9,9l0,0c0,5,4.1,9,9,9h125.8c4.9,0,9-4.1,9-9l0,0
			C1286.3,260.6,1282.3,256.6,1277.3,256.6z"/>
		<path class="st0" d="M1277.3,284.7h-125.8c-5,0-9,4.1-9,9v0c0,5,4.1,9,9,9h125.8c4.9,0,9-4.1,9-9v0
			C1286.3,288.7,1282.3,284.7,1277.3,284.7z"/>
		<path class="st0" d="M1277.3,312.8h-125.8c-5,0-9,4.1-9,9v0c0,5,4.1,9,9,9h125.8c4.9,0,9-4.1,9-9v0
			C1286.3,316.9,1282.3,312.8,1277.3,312.8z"/>
		<path class="st36" d="M1221.5,317h-68.2c-2.6,0-4.8,2.2-4.8,4.8l0,0c0,2.6,2.2,4.8,4.8,4.8h68.2c2.6,0,4.8-2.2,4.8-4.8l0,0
			C1226.3,319.2,1224.1,317,1221.5,317z"/>
		<path class="st36" d="M1259.1,288.9h-105.8c-2.6,0-4.8,2.2-4.8,4.8l0,0c0,2.6,2.2,4.8,4.8,4.8h105.8c2.6,0,4.8-2.2,4.8-4.8l0,0
			C1263.9,291,1261.8,288.9,1259.1,288.9z"/>
		<path class="st36" d="M1203.7,260.8h-50.4c-2.6,0-4.8,2.2-4.8,4.8l0,0c0,2.6,2.2,4.8,4.8,4.8h50.4c2.6,0,4.8-2.2,4.8-4.8l0,0
			C1208.5,262.9,1206.3,260.8,1203.7,260.8z"/>
		<g>
			<path class="st36" d="M1329.9,334.2h39c4.4,0,7.9,3.6,7.9,7.9v39c0,4.4-3.6,7.9-7.9,7.9h-39c-4.4,0-7.9-3.6-7.9-7.9v-39
				C1322,337.7,1325.6,334.2,1329.9,334.2z"/>
			<path class="st36" d="M1329.9,427.5h39c4.4,0,7.9,3.6,7.9,7.9v39c0,4.4-3.6,7.9-7.9,7.9h-39c-4.4,0-7.9-3.6-7.9-7.9v-39
				C1322,431.1,1325.6,427.5,1329.9,427.5z"/>
			<path class="st0" d="M1353.1,345.2c2,0.4,3.8,1.2,5.4,2.3l2.5-2.5c0.4-0.4,0.9-0.4,1.3,0l3.8,3.8c0.4,0.4,0.4,0.9,0,1.3l-2.5,2.5
				c1.1,1.6,1.8,3.5,2.3,5.4h3.5c0.5,0,0.9,0.4,0.9,0.9v5.4c0,0.5-0.4,0.9-0.9,0.9h-3.5c-0.4,2-1.2,3.8-2.3,5.4l2.5,2.5
				c0.4,0.4,0.4,0.9,0,1.3l-3.8,3.8c-0.4,0.4-0.9,0.4-1.3,0l-2.5-2.5c-1.6,1-3.5,1.8-5.4,2.3v3.5c0,0.5-0.4,0.9-0.9,0.9h-5.4
				c-0.5,0-0.9-0.4-0.9-0.9V378c-2-0.4-3.8-1.2-5.4-2.3l-2.5,2.5c-0.4,0.4-0.9,0.4-1.3,0l-3.8-3.8c-0.4-0.4-0.4-0.9,0-1.3l2.5-2.5
				c-1.1-1.6-1.8-3.5-2.3-5.4h-3.5c-0.5,0-0.9-0.4-0.9-0.9v-5.4c0-0.5,0.4-0.9,0.9-0.9h3.5c0.4-2,1.2-3.8,2.3-5.4l-2.5-2.5
				c-0.4-0.4-0.4-0.9,0-1.3l3.8-3.8c0.4-0.4,0.9-0.4,1.3,0l2.5,2.5c1.6-1,3.5-1.8,5.4-2.3v-3.5c0-0.5,0.4-0.9,0.9-0.9h5.4
				c0.5,0,0.9,0.4,0.9,0.9V345.2L1353.1,345.2z M1349.4,352.6c-5,0-9,4-9,9s4,9,9,9s9-4,9-9S1354.4,352.6,1349.4,352.6z"/>
			<g>
				<g>
					<path class="st0" d="M1341.1,446c2.5,0,4.5-2,4.5-4.5c0-2.5-2-4.5-4.5-4.5c-2.5,0-4.5,2-4.5,4.5
						C1336.5,443.9,1338.6,446,1341.1,446z"/>
					<path class="st0" d="M1341.1,459.5c2.5,0,4.5-2,4.5-4.5c0-2.5-2-4.5-4.5-4.5c-2.5,0-4.5,2-4.5,4.5
						C1336.5,457.5,1338.6,459.5,1341.1,459.5z"/>
					<path class="st0" d="M1341.1,473c2.5,0,4.5-2,4.5-4.5c0-2.5-2-4.5-4.5-4.5c-2.5,0-4.5,2-4.5,4.5
						C1336.5,471,1338.6,473,1341.1,473z"/>
				</g>
				<g>
					<path class="st0" d="M1357.8,446c2.5,0,4.5-2,4.5-4.5c0-2.5-2-4.5-4.5-4.5c-2.5,0-4.5,2-4.5,4.5
						C1353.3,443.9,1355.4,446,1357.8,446z"/>
					<path class="st0" d="M1357.8,459.5c2.5,0,4.5-2,4.5-4.5c0-2.5-2-4.5-4.5-4.5c-2.5,0-4.5,2-4.5,4.5
						C1353.3,457.5,1355.4,459.5,1357.8,459.5z"/>
					<path class="st0" d="M1357.8,473c2.5,0,4.5-2,4.5-4.5c0-2.5-2-4.5-4.5-4.5c-2.5,0-4.5,2-4.5,4.5
						C1353.3,471,1355.4,473,1357.8,473z"/>
				</g>
			</g>
			<g>
				<path class="st0" d="M1351.4,400.2c1.9,0,3.5-1.6,3.5-3.5c0-1.9-1.6-3.5-3.5-3.5c-1.9,0-3.5,1.6-3.5,3.5
					C1347.8,398.7,1349.4,400.2,1351.4,400.2z"/>
				<path class="st0" d="M1351.4,410.8c1.9,0,3.5-1.6,3.5-3.5c0-1.9-1.6-3.5-3.5-3.5c-1.9,0-3.5,1.6-3.5,3.5
					C1347.8,409.2,1349.4,410.8,1351.4,410.8z"/>
				<path class="st0" d="M1351.4,421.3c1.9,0,3.5-1.6,3.5-3.5c0-1.9-1.6-3.5-3.5-3.5c-1.9,0-3.5,1.6-3.5,3.5
					C1347.8,419.8,1349.4,421.3,1351.4,421.3z"/>
			</g>
		</g>
		<path class="st18" d="M357.7,208H255.1c-6.8,0-12.3,5.5-12.3,12.3l0,0c0,6.8,5.5,12.3,12.3,12.3h102.6c6.8,0,12.3-5.5,12.3-12.3
			l0,0C370,213.6,364.5,208,357.7,208z"/>
		<path class="st7" d="M345.5,161c-2,0.4-3.8,1.2-5.4,2.3l-2.5-2.5c-0.4-0.4-0.9-0.4-1.3,0l-3.8,3.8c-0.4,0.4-0.4,0.9,0,1.3l2.5,2.5
			c-1.1,1.6-1.8,3.5-2.3,5.4h-3.5c-0.5,0-0.9,0.4-0.9,0.9v5.4c0,0.5,0.4,0.9,0.9,0.9h3.5c0.4,2,1.2,3.8,2.3,5.4l-2.5,2.5
			c-0.4,0.4-0.4,0.9,0,1.3l3.8,3.8c0.4,0.4,0.9,0.4,1.3,0l2.5-2.5c1.6,1.1,3.5,1.8,5.4,2.3v3.5c0,0.5,0.4,0.9,0.9,0.9h5.4
			c0.5,0,0.9-0.4,0.9-0.9v-3.5c2-0.4,3.8-1.2,5.4-2.3l2.5,2.5c0.4,0.4,0.9,0.4,1.3,0l3.8-3.8c0.4-0.4,0.4-0.9,0-1.3l-2.5-2.5
			c1.1-1.6,1.8-3.5,2.3-5.4h3.5c0.5,0,0.9-0.4,0.9-0.9v-5.4c0-0.5-0.4-0.9-0.9-0.9h-3.5c-0.4-2-1.2-3.8-2.3-5.4l2.5-2.5
			c0.4-0.4,0.4-0.9,0-1.3l-3.8-3.8c-0.4-0.4-0.9-0.4-1.3,0l-2.5,2.5c-1.6-1.1-3.5-1.8-5.4-2.3v-3.5c0-0.5-0.4-0.9-0.9-0.9h-5.4
			c-0.5,0-0.9,0.4-0.9,0.9V161L345.5,161z M349.1,168.4c5,0,9,4,9,9c0,5-4,9-9,9c-5,0-9-4-9-9C340.1,172.4,344.2,168.4,349.1,168.4z
			"/>
		<path class="st17" d="M321,162.3h-35.8c-1.7,0-3.1,1.4-3.1,3.1l0,0c0,1.7,1.4,3.1,3.1,3.1H321c1.7,0,3.1-1.4,3.1-3.1l0,0
			C324.1,163.7,322.7,162.3,321,162.3z"/>
		<path class="st17" d="M321,179.5h-16.3c-1.7,0-3.1-1.4-3.1-3.1v0c0-1.7,1.4-3.1,3.1-3.1H321c1.7,0,3.1,1.4,3.1,3.1v0
			C324.1,178.1,322.7,179.5,321,179.5z"/>
		<g>
			<path class="st8" d="M358.9,212.9L358.9,212.9c-2.4,0-4.4,2-4.4,4.4v5.9c0,2.4,2,4.4,4.4,4.4l0,0c2.4,0,4.4-2,4.4-4.4v-5.9
				C363.3,214.9,361.3,212.9,358.9,212.9z"/>
			<path class="st8" d="M346,212.9L346,212.9c-2.4,0-4.4,2-4.4,4.4v5.9c0,2.4,2,4.4,4.4,4.4h0c2.4,0,4.4-2,4.4-4.4v-5.9
				C350.5,214.9,348.5,212.9,346,212.9z"/>
			<path class="st8" d="M333.2,212.9L333.2,212.9c-2.4,0-4.4,2-4.4,4.4v5.9c0,2.4,2,4.4,4.4,4.4h0c2.4,0,4.4-2,4.4-4.4v-5.9
				C337.6,214.9,335.6,212.9,333.2,212.9z"/>
			<path class="st8" d="M320.4,212.9L320.4,212.9c-2.4,0-4.4,2-4.4,4.4v5.9c0,2.4,2,4.4,4.4,4.4h0c2.4,0,4.4-2,4.4-4.4v-5.9
				C324.8,214.9,322.8,212.9,320.4,212.9z"/>
			<path class="st8" d="M307.6,212.9L307.6,212.9c-2.4,0-4.4,2-4.4,4.4v5.9c0,2.4,2,4.4,4.4,4.4h0c2.4,0,4.4-2,4.4-4.4v-5.9
				C312,214.9,310,212.9,307.6,212.9z"/>
			<path class="st8" d="M294.7,212.9L294.7,212.9c-2.4,0-4.4,2-4.4,4.4v5.9c0,2.4,2,4.4,4.4,4.4h0c2.4,0,4.4-2,4.4-4.4v-5.9
				C299.2,214.9,297.2,212.9,294.7,212.9z"/>
			<path class="st8" d="M281.9,212.9L281.9,212.9c-2.4,0-4.4,2-4.4,4.4v5.9c0,2.4,2,4.4,4.4,4.4h0c2.4,0,4.4-2,4.4-4.4v-5.9
				C286.3,214.9,284.3,212.9,281.9,212.9z"/>
		</g>
		<path class="st0" d="M118.1,255.5h87.1c5,0,9,4,9,9l0,0c0,5-4.1,9-9,9h-87.1c-5,0-9-4.1-9-9l0,0
			C109.1,259.6,113.1,255.5,118.1,255.5z"/>
		<path class="st0" d="M118.1,283.6h87.1c5,0,9,4.1,9,9v0c0,5-4.1,9-9,9h-87.1c-5,0-9-4.1-9-9v0
			C109.1,287.7,113.1,283.6,118.1,283.6z"/>
		<path class="st0" d="M118.1,311.7h87.1c5,0,9,4.1,9,9v0c0,5-4.1,9-9,9h-87.1c-5,0-9-4.1-9-9v0
			C109.1,315.8,113.1,311.7,118.1,311.7z"/>
		<path class="st36" d="M135.2,316h68.2c2.6,0,4.8,2.2,4.8,4.8l0,0c0,2.6-2.2,4.8-4.8,4.8h-68.2c-2.6,0-4.8-2.2-4.8-4.8l0,0
			C130.4,318.1,132.6,316,135.2,316z"/>
		<path class="st36" d="M184.9,287.8h18.5c2.6,0,4.8,2.2,4.8,4.8l0,0c0,2.6-2.2,4.8-4.8,4.8h-18.5c-2.6,0-4.8-2.2-4.8-4.8l0,0
			C180.1,290,182.2,287.8,184.9,287.8z"/>
		<path class="st36" d="M153,259.7h50.4c2.6,0,4.8,2.2,4.8,4.8l0,0c0,2.6-2.2,4.8-4.8,4.8H153c-2.6,0-4.8-2.2-4.8-4.8l0,0
			C148.2,261.9,150.3,259.7,153,259.7z"/>
	</g>
</g>
</svg>
