<svg width="530" height="530" xmlns="http://www.w3.org/2000/svg">
 <metadata id="metadata8">image/svg+xml</metadata>

 <g>
  <title>background</title>
  <rect fill="none" id="canvas_background" height="532" width="532" y="-1" x="-1"/>
 </g>
 <g>
  <title>Layer 1</title>
  <path fill="#202955" fill-rule="nonzero" d="m298.597474,499.861161c0,6.209333 -4.058667,11.2416 -9.066667,11.2416c-5.008,0 -9.068,-5.032267 -9.068,-11.2416c0,-6.207867 4.06,-11.2396 9.068,-11.2396c5.008,0 9.066667,5.031733 9.066667,11.2396" id="path30"/>
  <path fill="#202955" fill-rule="nonzero" d="m393.366806,499.861161c0,6.209333 -4.06,11.2416 -9.068,11.2416c-5.008,0 -9.068,-5.032267 -9.068,-11.2416c0,-6.207867 4.06,-11.2396 9.068,-11.2396c5.008,0 9.068,5.031733 9.068,11.2396" id="path32"/>
  <path fill="#d3cbcb" fill-rule="nonzero" d="m385.39214,475.529295l-27.057333,0c-7.528,0 -13.630667,-6.102667 -13.630667,-13.630667l0,-107.326666l-17.396,0l0,107.326666c0,7.528 -6.102667,13.630667 -13.632,13.630667l-25.238666,0l-2.649333,0c-4.090667,0 -7.408,3.3172 -7.408,7.409467l0,1.561467l0,13.294267c0,0.913467 0.741333,1.654667 1.657333,1.654667l6.744,0c0.914667,0 1.656,-0.7412 1.656,-1.654667l0,-5.885467c0,-4.0932 3.317333,-7.4088 7.408,-7.4088l82.137333,0c4.092,0 7.409333,3.3156 7.409333,7.4088l0,5.885467c0,0.913467 0.741333,1.654667 1.656,1.654667l6.745333,0c0.913333,0 1.656,-0.7412 1.656,-1.654667l0,-13.294267l0,-1.561467c0,-4.092267 -3.317333,-7.409467 -7.409333,-7.409467l-2.648,0" id="path34"/>
  <path fill="#3c4ea9" fill-rule="nonzero" d="m345.934807,366.919962l-21.218666,0c-1.42,0 -2.573333,-1.152 -2.573333,-2.573333l0,-6.812c0,-1.421333 1.153333,-2.573333 2.573333,-2.573333l21.218666,0c1.422667,0 2.574667,1.152 2.574667,2.573333l0,6.812c0,1.421333 -1.152,2.573333 -2.574667,2.573333" id="path36"/>
  <path fill="#27336d" fill-rule="nonzero" d="m422.570806,342.098629l0,10.933333c0,2.72 -2.2,4.92 -4.92,4.92l-150.919998,0l0.146667,-15.853333l155.693332,0" id="path38"/>
  <path fill="#27336d" fill-rule="nonzero" d="m456.464139,158.471964l-33.893333,183.626665l-40.066666,0c0,0 11.346667,-3.893333 12.946667,-29.68c0.813333,-13.026667 -0.866667,-31.64 -7.746667,-58.159999l1.986667,0c7.706667,0 13.96,-6.253333 13.96,-13.96l0,-97.266666c0,-1.506667 -0.186667,-2.946667 -0.52,-4.346667l36.853333,0c10.48,0 18.373333,9.493333 16.48,19.786666" id="path40"/>
  <path fill="#a89fd7" fill-rule="nonzero" d="m440.837472,158.471964l-33.893333,183.626665l-24.44,0c0,0 11.346667,-3.893333 12.946667,-29.68c0.813333,-13.026667 -0.866667,-31.64 -7.746667,-58.159999l1.986667,0c7.706667,0 13.96,-6.253333 13.96,-13.96l0,-97.266666c0,-1.506667 -0.186667,-2.946667 -0.52,-4.346667l21.226666,0c10.48,0 18.373333,9.493333 16.48,19.786666" id="path42"/>
  <path fill="#202955" fill-rule="nonzero" d="m387.78414,124.925298l0,0c0,0 -9.493333,-32.130666 -9.493333,-66.738666c0,-34.606666 -13.458667,-46.416 -28.016,-46.416l-30.936,0c-16.945333,0 -30.922666,13.22 -31.914666,30.136c-0.829333,14.14 -2.089333,29.773333 -3.890667,38.528c-3.845333,18.676 -11.782667,54.669333 -18.662666,73.614666c-6.881333,18.945333 -1.388,35.149333 15.366667,35.424c0,0 -1.373333,34.332 44.22,24.994666c43.236,-8.856 72.391999,-21.894666 67.798666,-74.051999c-0.477333,-5.402667 -1.981333,-10.672 -4.472,-15.490667" id="path44"/>
  <path fill="#27346f" fill-rule="nonzero" d="m303.094807,50.789299c-2.818667,0 -5.649333,-0.470667 -7.793333,-1.888c-2.136,-1.410667 -3.338667,-3.582667 -3.578667,-6.457333c-1.078667,-12.950667 9.48,-21.116 9.929333,-21.457333c0.293333,-0.222667 0.712,-0.162667 0.934667,0.128c0.222667,0.293333 0.165333,0.712 -0.128,0.934667c-0.105333,0.078667 -10.424,8.076 -9.408,20.282666c0.208,2.481333 1.184,4.266667 2.985333,5.457333c5.754667,3.798667 17.716,-0.098667 17.836,-0.138667c0.348,-0.117333 0.728,0.074667 0.842667,0.422667c0.116,0.349333 -0.073333,0.726667 -0.422667,0.842667c-0.34,0.113333 -5.748,1.873333 -11.197333,1.873333" id="path46"/>
  <path fill="#27346f" fill-rule="nonzero" d="m347.87614,46.495966c-0.357333,0 -0.654667,-0.284 -0.666667,-0.645333c-0.004,-0.128 -0.437333,-12.846667 -1.582667,-17.084c-0.096,-0.356 0.113333,-0.721333 0.468,-0.817333c0.361333,-0.098667 0.724,0.114667 0.818667,0.469333c1.185333,4.386667 1.612,16.858666 1.629333,17.388c0.012,0.368 -0.276,0.676 -0.644,0.688l-0.022667,0.001333" id="path48"/>
  <path fill="#ffd2a5" fill-rule="nonzero" d="m399.569473,131.535965c-54.293333,28.68 -94.733332,17.518666 -108.706666,11.933333c1.72,-1.426667 3.546667,-2.748 5.48,-3.906667c7.733333,-4.626667 18.414666,-11.093333 24.853333,-15.306667c5.053333,-3.306667 6.813333,-8.813333 7.24,-13.8c0.493333,-5.8 -0.826667,-10.88 -0.826667,-10.88l-4.518667,0c-13.214667,0 -23.921333,-10.706667 -23.921333,-23.92l0,-29.826666l48.706666,0l6.626667,58.653333c1.308,11.56 11.08,20.28 22.706666,20.28l8.173333,0c5.733333,0 10.84,2.64 14.186667,6.773333" id="path50"/>
  <path fill="#f14276" fill-rule="nonzero" d="m346.389473,289.391963c9.313333,4.797333 24.750666,25.974666 49.06,23.024c0.809333,-13.026667 -0.865333,-31.633333 -7.745333,-58.159999l1.985333,0c7.706667,0 13.96,-6.253333 13.96,-13.96l0,-97.267999c0,-4.357333 -1.532,-8.357333 -4.082667,-11.498667c-54.287999,28.688 -94.734666,17.529333 -108.698666,11.942667c-3.786667,3.153333 -7.04,6.921333 -9.578667,11.184l-33.533333,56.371999c-2.08,3.481333 -5.826667,5.613333 -9.88,5.613333l-3.28,0l0,31.601333l8.96,0c5.093333,0 9.946667,-2.226667 13.266667,-6.08l37.68,-43.774666c0,0 9.265333,31.784 -1.797333,82.537332l0.002667,0.008c0,0 42.945333,2.926667 53.681333,8.458667" id="path52"/>
  <path fill="#ffd2a5" fill-rule="nonzero" d="m249.769474,495.336094c0,0 -2.404,2.9172 -6.557333,6.497467c2.864,1.612 6.086667,4.1624 8.502667,8.141067c0,0 7.644,-7.849467 18.128,-8.4692c-1.189333,-3.292267 -2.628,-6.4256 -4.3,-8.810933l0.224,-25.338533l-19.902666,0l3.905333,27.980133" id="path54"/>
  <path fill="#f14276" fill-rule="nonzero" d="m251.714808,509.974627c-2.416,-3.978667 -5.638667,-6.529067 -8.502667,-8.141067c-5.752,4.9572 -14.864,11.1848 -25.642666,12.701067c0,0 -5.613333,-0.452133 -8.173333,3.347867c-0.866667,1.2932 0,3.0536 1.533333,3.3188c7.333333,1.226533 29.466666,4.0812 59.613333,-0.012c1.881333,-0.268267 3.24,-1.934933 3.066667,-3.814667c-0.325333,-3.5588 -1.637333,-9.9708 -3.766667,-15.8692c-10.484,0.619733 -18.128,8.4692 -18.128,8.4692" id="path56"/>
  <path fill="#57bfef" fill-rule="nonzero" d="m224.710808,318.998629c-15.290667,4.229333 -5.856,51.403999 -5.856,51.403999l-0.002667,0.017333c0.097333,0.761333 7.141333,55.971999 4.877333,60.167999c-2.266667,4.226667 -5.853333,13.666667 4.88,20.828c0,0 -4.88,17.892 12.373333,15.933333l4.88,0l0.001333,0.006667l19.902666,0l1.109333,-125.261332l30.86,0c-18.946666,-8.450667 -61.269333,-26.346666 -73.025333,-23.096" id="path58"/>
  <path fill="#51aae3" fill-rule="nonzero" d="m346.389473,289.391963c-10.736,-5.532 -53.681333,-8.458667 -53.681333,-8.458667l-0.002667,-0.008l-0.001333,0.010667c0,0 -50.094666,-11.066667 -61.481333,0c-11.386667,11.052 -57.266666,62.466666 -61.173333,76.771999c-2.52,9.241333 0,15.294667 0,15.294667c0,0 -8.813333,3.493333 -11.386667,8.786667c-5.52,11.358667 5.48,20.129333 5.530667,20.172l0.004,0c0,0 6.68,1.385333 15.582667,12.288l39.069333,-43.846666l0.002667,0.017333l0.002667,-0.017333c0,0 -9.434667,-47.174666 5.856,-51.403999c11.756,-3.250667 54.078666,14.645333 73.025333,23.096l84.766666,0c0,0 11.345333,-3.888 12.946667,-29.678666c-24.309333,2.950667 -39.746666,-18.226666 -49.06,-23.024" id="path60"/>
  <path fill="#ffd2a5" fill-rule="nonzero" d="m164.197475,401.961295l-0.004,0l0.002667,0.001333l-14.96,27c0,0 -3.105333,-0.777333 -7.713333,-2.102667c1.721333,3.54 3.376,8.073333 2.504,11.214667c0,0 6.666667,-0.86 13.706667,4.414667c0.841333,-1.884 1.697333,-3.976 2.556,-6.366667l19.490666,-21.873333c-8.902667,-10.902667 -15.582667,-12.288 -15.582667,-12.288" id="path62"/>
  <path fill="#f14276" fill-rule="nonzero" d="m144.026809,438.074628c0.872,-3.141333 -0.782667,-7.674667 -2.504,-11.214667c-9.266667,-2.661333 -24.64,-7.546667 -33.26,-12.844c-1.16,-0.72 -2.653333,-0.493333 -3.52,0.572c-0.413333,0.494667 -0.613333,1.094667 -0.613333,1.708c0,0.6 0.2,1.2 0.6,1.692c5.093333,6.228 23.36,27.788 39.066666,36.16c2.893333,1.546667 6.506667,0.814667 8.44,-1.84c1.553333,-2.126667 3.474667,-5.294667 5.497333,-9.818667c-7.04,-5.274667 -13.706667,-4.414667 -13.706667,-4.414667" id="path64"/>
  <path fill="#fabc87" fill-rule="nonzero" d="m341.462807,99.575965c0,0 -6.586667,10.946667 -13.026667,10.88c0.493333,-5.8 -0.826667,-10.88 -0.826667,-10.88l13.853333,0" id="path66"/>
  <path fill="#f46d9f" fill-rule="nonzero" d="m294.508141,199.058631c-0.276,0 -0.534667,-0.173333 -0.630667,-0.449333c-0.073333,-0.216 -7.292,-21.770666 4.765333,-41.973333c0.188,-0.318667 0.598667,-0.42 0.913333,-0.230667c0.316,0.188 0.421333,0.597333 0.232,0.913333c-11.732,19.657333 -4.721333,40.646666 -4.649333,40.856c0.12,0.348 -0.065333,0.728 -0.413333,0.848l-0.217333,0.036" id="path68"/>
  <path fill="#f46d9f" fill-rule="nonzero" d="m309.949474,235.401297c-0.326667,0 -0.613333,-0.241333 -0.658667,-0.574667c-0.050667,-0.365333 0.202667,-0.701333 0.569333,-0.752l69.663999,-9.676l-4.193333,-70.310666c-0.021333,-0.366667 0.258667,-0.682667 0.626667,-0.704c0.364,-0.026667 0.682667,0.257333 0.704,0.625333l4.229333,70.925333c0.021333,0.346667 -0.229333,0.652 -0.574667,0.7l-70.274666,9.76l-0.092,0.006667" id="path70"/>
  <path fill="#f46d9f" fill-rule="nonzero" d="m309.950807,254.741297c-0.229333,0 -0.441333,-0.117333 -0.564,-0.310667l-1.482667,-2.354667c-0.197333,-0.312 -0.102667,-0.724 0.208,-0.92c0.313333,-0.194667 0.724,-0.104 0.92,0.208l1.285333,2.044l75.665333,-0.196l0,0c0.368,0 0.666667,0.297333 0.666667,0.664c0.001333,0.369333 -0.296,0.668 -0.665333,0.669333l-76.031999,0.196l-0.001333,0" id="path72"/>
  <path fill="#ffffff" fill-rule="nonzero" d="m319.977474,78.702632c0,0 -6.013333,-2.594667 -6.956,-1.061333c-0.944,1.533333 2.948,3.42 8.134667,3.42c5.188,0 9.197333,-3.184 8.136,-4.953333c-1.061333,-1.768 -9.314667,2.594667 -9.314667,2.594667" id="path74"/>
  <path fill="#fabc87" fill-rule="nonzero" d="m321.606807,85.477298c-2.034667,0 -3.489333,-0.709333 -3.578667,-0.754667c-0.328,-0.164 -0.461333,-0.562667 -0.298667,-0.892c0.164,-0.332 0.565333,-0.462667 0.893333,-0.301333c0.026667,0.014667 2.841333,1.366667 5.916,-0.010667c0.333333,-0.150667 0.729333,-0.001333 0.881333,0.334667c0.150667,0.336 0,0.730667 -0.336,0.881333c-1.241333,0.556 -2.434667,0.742667 -3.477333,0.742667" id="path76"/>
  <path fill="#fabc87" fill-rule="nonzero" d="m318.97614,73.298632c-1.317333,0 -2.357333,-0.578667 -2.877333,-1.068c-0.132,-0.125333 -0.208,-0.301333 -0.208,-0.484l0,-16.506666c0,-3.336 -3.145333,-4.181333 -3.177333,-4.189333c-0.356,-0.090667 -0.570667,-0.453333 -0.48,-0.810667c0.090667,-0.356 0.449333,-0.572 0.810667,-0.48c1.445333,0.369333 4.18,1.992 4.18,5.48l0,16.182667c0.533333,0.365333 2.032,1.116 3.965333,-0.224c0.301333,-0.209333 0.717333,-0.134667 0.928,0.166667c0.209333,0.302667 0.134667,0.718667 -0.168,0.928c-1.065333,0.74 -2.082667,1.005333 -2.973333,1.005333" id="path78"/>
  <path fill="#202955" fill-rule="nonzero" d="m328.613474,57.638632c-1.553333,0 -2.817333,1.264 -2.817333,2.818667c0,1.553333 1.264,2.817333 2.817333,2.817333c1.554667,0 2.818667,-1.264 2.818667,-2.817333c0,-1.554667 -1.264,-2.818667 -2.818667,-2.818667" id="path80"/>
  <path fill="#202955" fill-rule="nonzero" d="m307.137474,57.638632c-1.554667,0 -2.82,1.264 -2.82,2.818667c0,1.553333 1.265333,2.817333 2.82,2.817333c1.553333,0 2.817333,-1.264 2.817333,-2.817333c0,-1.554667 -1.264,-2.818667 -2.817333,-2.818667" id="path82"/>
  <path fill="#202955" fill-rule="nonzero" d="m335.657473,51.779965l-0.185333,-0.028c-7.970667,-2.324 -11.052,-0.130667 -11.082667,-0.109333c-0.294667,0.217333 -0.712,0.161333 -0.930667,-0.129333c-0.221333,-0.290667 -0.170667,-0.702667 0.118667,-0.926667c0.14,-0.109333 3.554667,-2.653333 12.266667,-0.114667c0.354667,0.102667 0.557333,0.474667 0.454667,0.826667c-0.086667,0.292 -0.352,0.481333 -0.641333,0.481333" id="path88"/>
  <path fill="#202955" fill-rule="nonzero" d="m301.465474,51.779965c-0.244,0 -0.48,-0.136 -0.596,-0.369333c-0.164,-0.329333 -0.032,-0.729333 0.297333,-0.894667c4.433333,-2.217333 9.484,-0.657333 9.698667,-0.589333c0.349333,0.112 0.544,0.486667 0.433333,0.837333c-0.110667,0.350667 -0.485333,0.545333 -0.836,0.433333c-0.046667,-0.013333 -4.757333,-1.458667 -8.7,0.512l-0.297333,0.070667" id="path90"/>
  <path fill="#bfbdbd" fill-rule="nonzero" d="m331.425473,28.167966c-6.025333,0 -10.926667,-4.901333 -10.926667,-10.925333c0,-6.024 4.901333,-10.925333 10.926667,-10.925333c6.022667,0 10.924,4.901333 10.924,10.925333c0,6.024 -4.901333,10.925333 -10.924,10.925333zm-30.138666,0c-6.024,0 -10.924,-4.901333 -10.924,-10.925333c0,-6.024 4.9,-10.925333 10.924,-10.925333c6.025333,0 10.925333,4.901333 10.925333,10.925333c0,6.024 -4.9,10.925333 -10.925333,10.925333zm62.410666,-4.753333l-21.770666,-12.461333c-2.145333,-3.569333 -6.044,-5.969333 -10.501333,-5.969333c-4.082667,0 -7.694667,2.013333 -9.924,5.090667c-5.670667,-2.636 -9.125333,-1.068 -10.428,-0.182667c-2.238667,-2.973333 -5.786667,-4.908 -9.786667,-4.908c-6.758667,0 -12.257333,5.5 -12.257333,12.258667c0,6.758667 5.498667,12.258667 12.257333,12.258667c6.758667,0 12.258667,-5.5 12.258667,-12.258667c0,-2.284 -0.638667,-4.416 -1.730667,-6.249333c1.008,-0.688 3.937333,-2.058667 8.953333,0.212c-1.013333,1.785333 -1.602667,3.842667 -1.602667,6.037333c0,6.758667 5.5,12.258667 12.26,12.258667c6.758667,0 12.257333,-5.5 12.257333,-12.258667c0,-1.468 -0.272,-2.870667 -0.749333,-4.176l20.102666,11.506667l0.330667,0.086667c0.229333,0 0.454667,-0.12 0.577333,-0.334667c0.184,-0.32 0.073333,-0.726667 -0.246667,-0.910667" id="path92"/>
  <path fill="#f9fbfb" fill-rule="nonzero" d="m454.270806,249.011963l-0.052,-0.006667l0,-11.977333l0.052,-0.006667c2.52,0 4.570667,2.689333 4.570667,5.994667c0,3.306667 -2.050667,5.996 -4.570667,5.996zm0,-14.657333l-0.052,0.002667l0,-4.713333c0,-0.617333 -0.5,-1.118667 -1.118667,-1.118667l-22.773333,0c-0.617333,0 -1.118667,0.501333 -1.118667,1.118667l0,27.854666c0,0.617333 0.501333,1.118667 1.118667,1.118667l22.773333,0c0.618667,0 1.118667,-0.501333 1.118667,-1.118667l0,-5.822667l0.052,0.002667c3.990667,0 7.237333,-3.885333 7.237333,-8.662667c0,-4.776 -3.246667,-8.661333 -7.237333,-8.661333" id="path94"/>
  <path fill="#202955" fill-rule="nonzero" d="m437.401472,276.017297l-8.562667,0l-81.115999,239.238664l8.446667,0l76.950666,-226.951998l76.949333,226.951998l8.448,0l-81.115999,-239.238664" id="path96"/>
  <path fill="#202955" fill-rule="nonzero" d="m93.286809,276.017297l-81.116133,239.238664l8.448533,0l76.948933,-226.951998l76.949333,226.951998l8.448,0l-81.115999,-239.238664l-8.562667,0" id="path98"/>
  <path fill="#545ab2" fill-rule="nonzero" d="m122.504142,195.138631l-7.653333,31.266666l-7.026667,28.76l-41.146666,0l16.226667,-47.013333l4.493333,-13.013333l35.106666,0" id="path100"/>
  <path fill="#ffffff" fill-rule="nonzero" d="m125.104142,195.138631l-7.96,32.573333l-6.72,27.453333l-41.146666,0l15.813333,-45.773333l4.92,-14.253333l35.093333,0" id="path102"/>
  <path fill="#7172c1" fill-rule="nonzero" d="m120.346809,251.721297l-67.114133,0c-1.274533,0 -2.308267,1.034667 -2.308267,2.309333l0,2.277333c0,1.274667 1.033733,2.309333 2.308267,2.309333l67.114133,0c1.274667,0 2.308,-1.034667 2.308,-2.309333l0,-2.277333c0,-1.274667 -1.033333,-2.309333 -2.308,-2.309333" id="path104"/>
  <path fill="#4851ac" fill-rule="nonzero" d="m85.090809,209.391964l-2.186667,-1.24l4.493333,-13.013333l2.613333,0l-4.92,14.253333" id="path106"/>
  <path fill="#cdc9e9" fill-rule="nonzero" d="m117.144142,227.711964l-2.293333,-1.306667l-29.76,-17.013333l4.92,-14.253333l35.093333,0l-7.96,32.573333" id="path108"/>
  <path fill="#7172c1" fill-rule="nonzero" d="m192.605475,204.210631l-149.729065,0c-2.165067,0 -4.254133,-1.754667 -4.6672,-3.92l-18.320266,-96.173332c-0.1984,-1.038667 0.024933,-2.036 0.619733,-2.772l0.503733,-0.621333c0.5948,-0.734667 1.513467,-1.148 2.553067,-1.148l149.729332,0c2.165333,0 4.254667,1.754667 4.666667,3.92l18.321333,96.171999c0.198667,1.04 -0.025333,2.037333 -0.62,2.773333l-0.504,0.621333c-0.594667,0.734667 -1.513333,1.148 -2.553333,1.148" id="path110"/>
  <path fill="#ffffff" fill-rule="nonzero" d="m192.672142,201.291964l-147.433199,0c-2.165067,0 -4.254667,-1.754667 -4.666667,-3.92l-17.883866,-93.875999c-0.412,-2.165333 1.0084,-3.92 3.174,-3.92l147.432399,0c2.165333,0 4.254667,1.754667 4.666667,3.92l17.884,93.875999c0.412,2.165333 -1.008,3.92 -3.173333,3.92" id="path112"/>
  <path fill="#4c3e7f" fill-rule="nonzero" d="m190.578808,197.859964l-144.555465,0c-0.769867,0 -1.512533,-0.625333 -1.659867,-1.394667l-17.5376,-92.062666c-0.146267,-0.769333 0.358933,-1.393333 1.128133,-1.393333l144.556799,0c0.769333,0 1.512,0.624 1.658667,1.393333l17.537333,92.062666c0.146667,0.769333 -0.357333,1.394667 -1.128,1.394667" id="path114"/>
  <path fill="#6081ca" fill-rule="nonzero" d="m33.349343,112.666632l2.202133,0c0.6072,0 1.006267,-0.492 0.89,-1.1c-0.1156,-0.608 -0.702,-1.1 -1.309867,-1.1l-2.201467,0c-0.607867,0 -1.006267,0.492 -0.8912,1.1c0.1156,0.608 0.703067,1.1 1.3104,1.1" id="path116"/>
  <path fill="#2e2656" fill-rule="nonzero" d="m55.363476,112.666632l22.015333,0c0.606667,0 1.006667,-0.492 0.890667,-1.1c-0.116,-0.608 -0.702667,-1.1 -1.310667,-1.1l-22.014133,0c-0.607867,0 -1.0068,0.492 -0.8912,1.1c0.116133,0.608 0.702667,1.1 1.31,1.1" id="path118"/>
  <path fill="#6852ad" fill-rule="nonzero" d="m81.781476,112.666632l2.201333,0c0.608,0 1.006667,-0.492 0.890667,-1.1c-0.114667,-0.608 -0.702667,-1.1 -1.309333,-1.1l-2.202667,0c-0.606667,0 -1.006667,0.492 -0.890667,1.1c0.116,0.608 0.702667,1.1 1.310667,1.1" id="path120"/>
  <path fill="#6852ad" fill-rule="nonzero" d="m103.796142,112.666632l7.22,0c0.608,0 1.006667,-0.492 0.890667,-1.1c-0.116,-0.608 -0.701333,-1.1 -1.310667,-1.1l-7.22,0c-0.608,0 -1.006667,0.492 -0.890667,1.1c0.116,0.608 0.702667,1.1 1.310667,1.1" id="path122"/>
  <path fill="#6a58a1" fill-rule="nonzero" d="m88.385476,112.666632l11.008,0c0.608,0 1.006667,-0.492 0.890667,-1.1c-0.116,-0.608 -0.702667,-1.1 -1.310667,-1.1l-11.006667,0c-0.608,0 -1.008,0.492 -0.892,1.1c0.116,0.608 0.702667,1.1 1.310667,1.1" id="path124"/>
  <path fill="#6a58a1" fill-rule="nonzero" d="m39.95401,112.666632l11.007333,0c0.607333,0 1.0068,-0.492 0.890667,-1.1c-0.116133,-0.608 -0.702667,-1.1 -1.310533,-1.1l-11.0072,0c-0.607333,0 -1.006267,0.492 -0.890667,1.1c0.1156,0.608 0.702667,1.1 1.3104,1.1" id="path126"/>
  <path fill="#6a58a1" fill-rule="nonzero" d="m67.414809,118.147965c-0.116,-0.608 -0.702667,-1.1 -1.309333,-1.1l-24.216533,0c-0.607867,0 -1.007333,0.492 -0.8912,1.1c0.115733,0.608 0.702667,1.101333 1.3104,1.101333l24.216,0c0.608,0 1.006667,-0.493333 0.890667,-1.101333" id="path128"/>
  <path fill="#f1469c" fill-rule="nonzero" d="m37.485876,117.047965l-3.3016,0c-0.6084,0 -1.007333,0.492 -0.891733,1.1c0.116133,0.608 0.702667,1.101333 1.3104,1.101333l3.302667,0c0.607867,0 1.0068,-0.493333 0.8912,-1.101333c-0.116267,-0.608 -0.702667,-1.1 -1.310933,-1.1" id="path130"/>
  <path fill="#6a58a1" fill-rule="nonzero" d="m92.522809,117.047965l-22.014666,0c-0.608,0 -1.006667,0.492 -0.890667,1.1c0.116,0.608 0.701333,1.101333 1.310667,1.101333l22.013333,0c0.608,0 1.006667,-0.493333 0.890667,-1.101333c-0.114667,-0.608 -0.702667,-1.1 -1.309333,-1.1" id="path132"/>
  <path fill="#6852ad" fill-rule="nonzero" d="m100.646809,119.249298c0.608,0 1.006667,-0.493333 0.890667,-1.101333c-0.114667,-0.608 -0.702667,-1.1 -1.309333,-1.1l-3.302667,0c-0.608,0 -1.006667,0.492 -0.890667,1.1c0.114667,0.608 0.701333,1.101333 1.309333,1.101333l3.302667,0" id="path134"/>
  <path fill="#6a58a1" fill-rule="nonzero" d="m111.850809,117.047965l-7.221333,0c-0.606667,0 -1.006667,0.492 -0.890667,1.1c0.116,0.608 0.702667,1.101333 1.310667,1.101333l7.22,0c0.608,0 1.006667,-0.493333 0.892,-1.101333c-0.116,-0.608 -0.704,-1.1 -1.310667,-1.1" id="path136"/>
  <path fill="#6852ad" fill-rule="nonzero" d="m86.490809,125.830631c0.606667,0 1.006667,-0.493333 0.890667,-1.1c-0.116,-0.608 -0.702667,-1.101333 -1.310667,-1.101333l-2.201333,0c-0.608,0 -1.006667,0.493333 -0.890667,1.101333c0.116,0.606667 0.702667,1.1 1.309333,1.1l2.202667,0" id="path138"/>
  <path fill="#f6f23e" fill-rule="nonzero" d="m35.85721,125.830631l2.200933,0c0.6084,0 1.007333,-0.493333 0.891733,-1.1c-0.116133,-0.608 -0.702667,-1.101333 -1.310933,-1.101333l-2.201067,0c-0.607733,0 -1.007333,0.493333 -0.891067,1.101333c0.1156,0.606667 0.702,1.1 1.3104,1.1" id="path140"/>
  <path fill="#6081ca" fill-rule="nonzero" d="m89.582809,124.730631c0.116,0.606667 0.702667,1.1 1.310667,1.1l11.006667,0c0.608,0 1.006667,-0.493333 0.890667,-1.1c-0.114667,-0.608 -0.701333,-1.101333 -1.309333,-1.101333l-11.008,0c-0.606667,0 -1.006667,0.493333 -0.890667,1.101333" id="path142"/>
  <path fill="#6081ca" fill-rule="nonzero" d="m42.461343,125.830631l11.007333,0c0.607733,0 1.006667,-0.493333 0.891067,-1.1c-0.116133,-0.608 -0.702533,-1.101333 -1.3104,-1.101333l-11.007333,0c-0.607733,0 -1.006133,0.493333 -0.891067,1.101333c0.1156,0.606667 0.703067,1.1 1.3104,1.1" id="path144"/>
  <path fill="#6081ca" fill-rule="nonzero" d="m113.104142,123.629298l-7.22,0c-0.608,0 -1.006667,0.493333 -0.890667,1.101333c0.116,0.606667 0.702667,1.1 1.309333,1.1l7.221333,0c0.606667,0 1.006667,-0.493333 0.890667,-1.1c-0.116,-0.608 -0.702667,-1.101333 -1.310667,-1.101333" id="path146"/>
  <path fill="#6852ad" fill-rule="nonzero" d="m57.87121,125.830631l22.014266,0c0.608,0 1.008,-0.493333 0.892,-1.1c-0.116,-0.608 -0.702667,-1.101333 -1.310667,-1.101333l-22.014266,0c-0.6084,0 -1.0068,0.493333 -0.891733,1.101333c0.116133,0.606667 0.702667,1.1 1.3104,1.1" id="path148"/>
  <path fill="#6a58a1" fill-rule="nonzero" d="m114.358809,130.211965l-7.221333,0c-0.606667,0 -1.006667,0.492 -0.890667,1.1c0.116,0.608 0.702667,1.101333 1.310667,1.101333l7.22,0c0.608,0 1.006667,-0.493333 0.890667,-1.101333c-0.114667,-0.608 -0.702667,-1.1 -1.309333,-1.1" id="path150"/>
  <path fill="#2e2656" fill-rule="nonzero" d="m102.734809,130.211965l-3.302667,0c-0.606667,0 -1.005333,0.492 -0.890667,1.1c0.116,0.608 0.702667,1.101333 1.310667,1.101333l3.302667,0c0.606667,0 1.006667,-0.493333 0.890667,-1.101333c-0.116,-0.608 -0.702667,-1.1 -1.310667,-1.1" id="path152"/>
  <path fill="#6a58a1" fill-rule="nonzero" d="m96.340143,131.311965c-0.116,-0.608 -0.702667,-1.1 -1.310667,-1.1l-22.014666,0c-0.606667,0 -1.005333,0.492 -0.890667,1.1c0.116,0.608 0.702667,1.101333 1.310667,1.101333l22.014666,0c0.608,0 1.006667,-0.493333 0.890667,-1.101333" id="path154"/>
  <path fill="#6a58a1" fill-rule="nonzero" d="m43.50561,131.311965c0.1156,0.608 0.702533,1.101333 1.3104,1.101333l24.216133,0c0.608,0 1.006667,-0.493333 0.890667,-1.101333c-0.116,-0.608 -0.702667,-1.1 -1.310667,-1.1l-24.215333,0c-0.607867,0 -1.0068,0.492 -0.8912,1.1" id="path156"/>
  <path fill="#6081ca" fill-rule="nonzero" d="m39.99361,130.211965l-3.302133,0c-0.607733,0 -1.006667,0.492 -0.891067,1.1c0.116133,0.608 0.702533,1.101333 1.310933,1.101333l3.302133,0c0.607733,0 1.006667,-0.493333 0.891067,-1.101333c-0.116133,-0.608 -0.702533,-1.1 -1.310933,-1.1" id="path158"/>
  <path fill="#6081ca" fill-rule="nonzero" d="m115.612142,136.793298l-2.817333,0c-0.608,0 -1.006667,0.493333 -0.892,1.101333c0.116,0.606667 0.702667,1.1 1.310667,1.1l2.818667,0c0.606667,0 1.006667,-0.493333 0.890667,-1.1c-0.116,-0.608 -0.702667,-1.101333 -1.310667,-1.101333" id="path160"/>
  <path fill="#6081ca" fill-rule="nonzero" d="m92.090809,137.894631c-0.116,-0.608 -0.702667,-1.101333 -1.310667,-1.101333l-2.201333,0c-0.608,0 -1.006667,0.493333 -0.890667,1.101333c0.116,0.606667 0.702667,1.1 1.310667,1.1l2.201333,0c0.608,0 1.005333,-0.493333 0.890667,-1.1" id="path162"/>
  <path fill="#6a58a1" fill-rule="nonzero" d="m84.176143,136.793298l-22.0148,0c-0.607867,0 -1.0068,0.493333 -0.890667,1.101333c0.1156,0.606667 0.702667,1.1 1.309867,1.1l22.014266,0c0.608,0 1.006667,-0.493333 0.890667,-1.1c-0.114667,-0.608 -0.701333,-1.101333 -1.309333,-1.101333" id="path164"/>
  <path fill="#6a58a1" fill-rule="nonzero" d="m109.702809,137.894631c-0.116,-0.608 -0.702667,-1.101333 -1.310667,-1.101333l-13.209333,0c-0.608,0 -1.006667,0.493333 -0.890667,1.101333c0.116,0.606667 0.702667,1.1 1.310667,1.1l13.208,0c0.608,0 1.006667,-0.493333 0.892,-1.1" id="path166"/>
  <path fill="#6852ad" fill-rule="nonzero" d="m44.96921,138.994631l13.2088,0c0.607867,0 1.0068,-0.493333 0.890667,-1.1c-0.115733,-0.608 -0.702133,-1.101333 -1.310533,-1.101333l-13.208267,0c-0.6084,0 -1.007333,0.493333 -0.8912,1.101333c0.115733,0.606667 0.702667,1.1 1.310533,1.1" id="path168"/>
  <path fill="#f1469c" fill-rule="nonzero" d="m38.364943,138.994631l2.201067,0c0.6084,0 1.007333,-0.493333 0.891733,-1.1c-0.116267,-0.608 -0.702667,-1.101333 -1.310933,-1.101333l-2.201067,0c-0.6084,0 -1.007333,0.493333 -0.8912,1.101333c0.1156,0.606667 0.702667,1.1 1.3104,1.1" id="path170"/>
  <path fill="#f6f23e" fill-rule="nonzero" d="m39.61921,145.577298l2.200933,0c0.607867,0 1.0068,-0.493333 0.8912,-1.101333c-0.1156,-0.608 -0.702667,-1.1 -1.3104,-1.1l-2.202133,0c-0.607333,0 -1.006267,0.492 -0.890667,1.1c0.116267,0.608 0.702667,1.101333 1.311067,1.101333" id="path172"/>
  <path fill="#2e2656" fill-rule="nonzero" d="m46.223343,145.577298l11.0068,0c0.608267,0 1.0072,-0.493333 0.891067,-1.101333c-0.1156,-0.608 -0.702,-1.1 -1.3104,-1.1l-11.007333,0c-0.607733,0 -1.006667,0.492 -0.891067,1.1c0.116133,0.608 0.702533,1.101333 1.310933,1.101333" id="path174"/>
  <path fill="#6a58a1" fill-rule="nonzero" d="m105.242809,143.375965l-11.008,0c-0.608,0 -1.005333,0.492 -0.890667,1.1c0.116,0.608 0.702667,1.101333 1.310667,1.101333l11.006667,0c0.608,0 1.008,-0.493333 0.892,-1.101333c-0.116,-0.608 -0.702667,-1.1 -1.310667,-1.1" id="path176"/>
  <path fill="#6a58a1" fill-rule="nonzero" d="m116.865476,143.375965l-7.22,0c-0.608,0 -1.006667,0.492 -0.890667,1.1c0.116,0.608 0.701333,1.101333 1.310667,1.101333l7.22,0c0.608,0 1.006667,-0.493333 0.890667,-1.101333c-0.116,-0.608 -0.702667,-1.1 -1.310667,-1.1" id="path178"/>
  <path fill="#6081ca" fill-rule="nonzero" d="m88.050809,145.577298l2.201333,0c0.608,0 1.006667,-0.493333 0.890667,-1.101333c-0.116,-0.608 -0.702667,-1.1 -1.310667,-1.1l-2.201333,0c-0.608,0 -1.006667,0.492 -0.890667,1.1c0.116,0.608 0.702667,1.101333 1.310667,1.101333" id="path180"/>
  <path fill="#6a58a1" fill-rule="nonzero" d="m61.63321,145.577298l22.014933,0c0.608,0 1.006667,-0.493333 0.890667,-1.101333c-0.116,-0.608 -0.702667,-1.1 -1.310667,-1.1l-22.014266,0c-0.607733,0 -1.0072,0.492 -0.891067,1.1c0.1156,0.608 0.702,1.101333 1.3104,1.101333" id="path182"/>
  <path fill="#6a58a1" fill-rule="nonzero" d="m47.26761,151.057298c0.1156,0.608 0.702,1.101333 1.309333,1.101333l24.216533,0c0.608,0 1.006667,-0.493333 0.890667,-1.101333c-0.116,-0.608 -0.701333,-1.1 -1.310667,-1.1l-24.215333,0c-0.607733,0 -1.006667,0.492 -0.890533,1.1" id="path184"/>
  <path fill="#f1469c" fill-rule="nonzero" d="m43.755076,149.957298l-3.302133,0c-0.6072,0 -1.006667,0.492 -0.890533,1.1c0.1156,0.608 0.702,1.101333 1.309867,1.101333l3.302533,0c0.607333,0 1.006267,-0.493333 0.890667,-1.101333c-0.1156,-0.608 -0.702533,-1.1 -1.3104,-1.1" id="path186"/>
  <path fill="#6a58a1" fill-rule="nonzero" d="m100.101476,151.057298c-0.116,-0.608 -0.701333,-1.1 -1.310667,-1.1l-22.013333,0c-0.608,0 -1.008,0.492 -0.892,1.1c0.116,0.608 0.702667,1.101333 1.310667,1.101333l22.014666,0c0.608,0 1.006667,-0.493333 0.890667,-1.101333" id="path188"/>
  <path fill="#2e2656" fill-rule="nonzero" d="m106.916142,152.158631c0.608,0 1.006667,-0.493333 0.890667,-1.101333c-0.116,-0.608 -0.702667,-1.1 -1.310667,-1.1l-3.301333,0c-0.608,0 -1.008,0.492 -0.892,1.1c0.116,0.608 0.702667,1.101333 1.310667,1.101333l3.302667,0" id="path190"/>
  <path fill="#6a58a1" fill-rule="nonzero" d="m118.120142,149.957298l-7.22,0c-0.609333,0 -1.008,0.492 -0.892,1.1c0.116,0.608 0.702667,1.101333 1.310667,1.101333l7.22,0c0.608,0 1.006667,-0.493333 0.890667,-1.101333c-0.114667,-0.608 -0.701333,-1.1 -1.309333,-1.1" id="path192"/>
  <path fill="#6852ad" fill-rule="nonzero" d="m93.650809,157.639964c-0.116,-0.608 -0.702667,-1.1 -1.310667,-1.1l-2.201333,0c-0.608,0 -1.006667,0.492 -0.890667,1.1c0.116,0.608 0.702667,1.101333 1.310667,1.101333l2.201333,0c0.608,0 1.006667,-0.493333 0.890667,-1.101333" id="path194"/>
  <path fill="#2e2656" fill-rule="nonzero" d="m119.373476,156.539964l-7.22,0c-0.608,0 -1.006667,0.492 -0.892,1.1c0.116,0.608 0.702667,1.101333 1.310667,1.101333l7.22,0c0.608,0 1.008,-0.493333 0.892,-1.101333c-0.116,-0.608 -0.702667,-1.1 -1.310667,-1.1" id="path196"/>
  <path fill="#6081ca" fill-rule="nonzero" d="m64.141076,158.741298l22.013733,0c0.608,0 1.006667,-0.493333 0.892,-1.101333c-0.116,-0.608 -0.702667,-1.1 -1.310667,-1.1l-22.0144,0c-0.608267,0 -1.007333,0.492 -0.8912,1.1c0.115733,0.608 0.702667,1.101333 1.310533,1.101333" id="path198"/>
  <path fill="#6a58a1" fill-rule="nonzero" d="m48.730543,158.741298l11.007333,0c0.6084,0 1.0068,-0.493333 0.891733,-1.101333c-0.116133,-0.608 -0.703733,-1.1 -1.310933,-1.1l-11.0068,0c-0.6084,0 -1.007333,0.492 -0.891733,1.1c0.116133,0.608 0.702667,1.101333 1.3104,1.101333" id="path200"/>
  <path fill="#f6f23e" fill-rule="nonzero" d="m42.12641,158.741298l2.2016,0c0.607867,0 1.006267,-0.493333 0.8912,-1.101333c-0.116267,-0.608 -0.7032,-1.1 -1.310533,-1.1l-2.202,0c-0.607333,0 -1.006267,0.492 -0.890667,1.1c0.116133,0.608 0.702667,1.101333 1.3104,1.101333" id="path202"/>
  <path fill="#6852ad" fill-rule="nonzero" d="m97.162809,158.741298l11.006667,0c0.608,0 1.008,-0.493333 0.892,-1.101333c-0.116,-0.608 -0.702667,-1.1 -1.310667,-1.1l-11.008,0c-0.608,0 -1.006667,0.492 -0.890667,1.1c0.116,0.608 0.702667,1.101333 1.310667,1.101333" id="path204"/>
  <path fill="#6852ad" fill-rule="nonzero" d="m63.193076,165.322631c0.6084,0 1.007333,-0.492 0.8912,-1.101333c-0.1156,-0.608 -0.702667,-1.1 -1.3104,-1.1l-13.208933,0c-0.6072,0 -1.0068,0.492 -0.890533,1.1c0.1156,0.609333 0.702,1.101333 1.3104,1.101333l13.208267,0" id="path206"/>
  <path fill="#6852ad" fill-rule="nonzero" d="m120.626809,163.121298l-2.816,0c-0.608,0 -1.008,0.492 -0.892,1.1c0.116,0.609333 0.702667,1.101333 1.310667,1.101333l2.817333,0c0.608,0 1.006667,-0.492 0.890667,-1.101333c-0.116,-0.608 -0.702667,-1.1 -1.310667,-1.1" id="path208"/>
  <path fill="#6081ca" fill-rule="nonzero" d="m94.013476,165.322631l2.201333,0c0.608,0 1.006667,-0.492 0.890667,-1.101333c-0.116,-0.608 -0.702667,-1.1 -1.310667,-1.1l-2.2,0c-0.609333,0 -1.008,0.492 -0.892,1.1c0.116,0.609333 0.702667,1.101333 1.310667,1.101333" id="path210"/>
  <path fill="#6a58a1" fill-rule="nonzero" d="m67.596143,165.322631l22.014666,0c0.608,0 1.006667,-0.492 0.890667,-1.101333c-0.116,-0.608 -0.702667,-1.1 -1.310667,-1.1l-22.013333,0c-0.609333,0 -1.008,0.492 -0.892,1.1c0.116,0.609333 0.702667,1.101333 1.310667,1.101333" id="path212"/>
  <path fill="#f1469c" fill-rule="nonzero" d="m43.380143,165.322631l2.201467,0c0.607867,0 1.0068,-0.492 0.890667,-1.101333c-0.115067,-0.608 -0.702667,-1.1 -1.309867,-1.1l-2.2016,0c-0.607867,0 -1.0068,0.492 -0.890667,1.1c0.1152,0.609333 0.702667,1.101333 1.31,1.101333" id="path214"/>
  <path fill="#6a58a1" fill-rule="nonzero" d="m100.617476,165.322631l13.209333,0c0.608,0 1.006667,-0.492 0.890667,-1.101333c-0.116,-0.608 -0.702667,-1.1 -1.310667,-1.1l-13.208,0c-0.608,0 -1.006667,0.492 -0.890667,1.1c0.114667,0.609333 0.702667,1.101333 1.309333,1.101333" id="path216"/>
  <path fill="#6852ad" fill-rule="nonzero" d="m121.881476,169.702631l-7.22,0c-0.608,0 -1.008,0.493333 -0.892,1.101333c0.116,0.608 0.702667,1.1 1.310667,1.1l7.22,0c0.608,0 1.008,-0.492 0.892,-1.1c-0.116,-0.608 -0.702667,-1.101333 -1.310667,-1.101333" id="path218"/>
  <path fill="#6081ca" fill-rule="nonzero" d="m110.258809,169.702631l-3.302667,0c-0.608,0 -1.006667,0.493333 -0.890667,1.101333c0.114667,0.608 0.701333,1.1 1.309333,1.1l3.302667,0c0.608,0 1.006667,-0.492 0.890667,-1.1c-0.114667,-0.608 -0.702667,-1.101333 -1.309333,-1.101333" id="path220"/>
  <path fill="#2e2656" fill-rule="nonzero" d="m76.136143,169.702631l-24.216533,0c-0.607733,0 -1.006133,0.493333 -0.891067,1.101333c0.1156,0.608 0.702,1.1 1.3104,1.1l24.215866,0c0.608,0 1.006667,-0.492 0.890667,-1.1c-0.114667,-0.608 -0.702667,-1.101333 -1.309333,-1.101333" id="path222"/>
  <path fill="#6a58a1" fill-rule="nonzero" d="m102.553476,169.702631l-22.014666,0c-0.608,0 -1.006667,0.493333 -0.890667,1.101333c0.114667,0.608 0.701333,1.1 1.309333,1.1l22.014666,0c0.608,0 1.006667,-0.492 0.892,-1.1c-0.116,-0.608 -0.704,-1.101333 -1.310667,-1.101333" id="path224"/>
  <path fill="#2e2656" fill-rule="nonzero" d="m130.618809,112.666632l22.014666,0c0.608,0 1.006667,-0.492 0.890667,-1.1c-0.116,-0.608 -0.702667,-1.1 -1.310667,-1.1l-22.013333,0c-0.608,0 -1.006667,0.492 -0.892,1.1c0.116,0.608 0.702667,1.1 1.310667,1.1" id="path226"/>
  <path fill="#6852ad" fill-rule="nonzero" d="m157.036142,112.666632l2.201333,0c0.608,0 1.006667,-0.492 0.890667,-1.1c-0.116,-0.608 -0.701333,-1.1 -1.309333,-1.1l-2.201333,0c-0.608,0 -1.006667,0.492 -0.890667,1.1c0.114667,0.608 0.701333,1.1 1.309333,1.1" id="path228"/>
  <path fill="#6a58a1" fill-rule="nonzero" d="m163.641475,112.666632l6.453333,0c0.606667,0 1.005333,-0.492 0.889333,-1.1c-0.114667,-0.608 -0.701333,-1.1 -1.309333,-1.1l-6.453333,0c-0.608,0 -1.006667,0.492 -0.890667,1.1c0.116,0.608 0.702667,1.1 1.310667,1.1" id="path230"/>
  <path fill="#6a58a1" fill-rule="nonzero" d="m115.208142,112.666632l11.008,0c0.608,0 1.006667,-0.492 0.890667,-1.1c-0.116,-0.608 -0.702667,-1.1 -1.310667,-1.1l-11.006667,0c-0.608,0 -1.006667,0.492 -0.890667,1.1c0.114667,0.608 0.702667,1.1 1.309333,1.1" id="path232"/>
  <path fill="#6a58a1" fill-rule="nonzero" d="m141.394809,118.147965c-0.116,-0.608 -0.702667,-1.1 -1.310667,-1.1l-24.216,0c-0.608,0 -1.006667,0.492 -0.890667,1.1c0.116,0.608 0.701333,1.101333 1.310667,1.101333l24.214666,0c0.608,0 1.008,-0.493333 0.892,-1.101333" id="path234"/>
  <path fill="#6a58a1" fill-rule="nonzero" d="m170.928142,117.047965l-26.441333,0c-0.608,0 -1.006667,0.492 -0.892,1.1c0.116,0.608 0.704,1.101333 1.310667,1.101333l26.441333,0c0.608,0 1.008,-0.493333 0.892,-1.101333c-0.116,-0.608 -0.702667,-1.1 -1.310667,-1.1" id="path236"/>
  <path fill="#6852ad" fill-rule="nonzero" d="m161.745475,125.830631c0.608,0 1.006667,-0.493333 0.890667,-1.1c-0.116,-0.608 -0.702667,-1.101333 -1.310667,-1.101333l-2.201333,0c-0.608,0 -1.006667,0.493333 -0.890667,1.101333c0.116,0.606667 0.702667,1.1 1.310667,1.1l2.201333,0" id="path238"/>
  <path fill="#6081ca" fill-rule="nonzero" d="m164.837475,124.730631c0.116,0.606667 0.702667,1.1 1.310667,1.1l5.902667,0c0.608,0 1.006667,-0.493333 0.890667,-1.1c-0.114667,-0.608 -0.702667,-1.101333 -1.309333,-1.101333l-5.902667,0c-0.608,0 -1.006667,0.493333 -0.892,1.101333" id="path240"/>
  <path fill="#6081ca" fill-rule="nonzero" d="m117.716142,125.830631l11.008,0c0.608,0 1.006667,-0.493333 0.890667,-1.1c-0.116,-0.608 -0.702667,-1.101333 -1.310667,-1.101333l-11.006667,0c-0.608,0 -1.008,0.493333 -0.892,1.101333c0.116,0.606667 0.702667,1.1 1.310667,1.1" id="path242"/>
  <path fill="#6852ad" fill-rule="nonzero" d="m133.126809,125.830631l22.014666,0c0.608,0 1.006667,-0.493333 0.890667,-1.1c-0.116,-0.608 -0.702667,-1.101333 -1.310667,-1.101333l-22.014666,0c-0.608,0 -1.006667,0.493333 -0.890667,1.101333c0.116,0.606667 0.702667,1.1 1.310667,1.1" id="path244"/>
  <path fill="#6a58a1" fill-rule="nonzero" d="m174.346808,131.311965c-0.114667,-0.608 -0.701333,-1.1 -1.309333,-1.1l-24.766666,0c-0.608,0 -1.006667,0.492 -0.892,1.1c0.116,0.608 0.702667,1.101333 1.310667,1.101333l24.766666,0c0.608,0 1.006667,-0.493333 0.890667,-1.101333" id="path246"/>
  <path fill="#6a58a1" fill-rule="nonzero" d="m118.761476,131.311965c0.114667,0.608 0.701333,1.101333 1.309333,1.101333l24.216,0c0.608,0 1.006667,-0.493333 0.890667,-1.101333c-0.114667,-0.608 -0.701333,-1.1 -1.309333,-1.1l-24.216,0c-0.608,0 -1.006667,0.492 -0.890667,1.1" id="path248"/>
  <path fill="#6081ca" fill-rule="nonzero" d="m167.345475,137.894631c-0.116,-0.608 -0.702667,-1.101333 -1.309333,-1.101333l-2.202667,0c-0.608,0 -1.006667,0.493333 -0.890667,1.101333c0.116,0.606667 0.702667,1.1 1.310667,1.1l2.201333,0c0.608,0 1.006667,-0.493333 0.890667,-1.1" id="path250"/>
  <path fill="#6a58a1" fill-rule="nonzero" d="m159.430809,136.793298l-22.014666,0c-0.608,0 -1.006667,0.493333 -0.890667,1.101333c0.116,0.606667 0.702667,1.1 1.310667,1.1l22.013333,0c0.608,0 1.008,-0.493333 0.892,-1.1c-0.116,-0.608 -0.702667,-1.101333 -1.310667,-1.101333" id="path252"/>
  <path fill="#6a58a1" fill-rule="nonzero" d="m176.150808,137.894631c-0.114667,-0.608 -0.701333,-1.101333 -1.309333,-1.101333l-4.404,0c-0.606667,0 -1.006667,0.493333 -0.890667,1.101333c0.116,0.606667 0.702667,1.1 1.310667,1.1l4.402667,0c0.608,0 1.006667,-0.493333 0.890667,-1.1" id="path254"/>
  <path fill="#6852ad" fill-rule="nonzero" d="m120.224142,138.994631l13.208,0c0.608,0 1.008,-0.493333 0.892,-1.1c-0.116,-0.608 -0.702667,-1.101333 -1.310667,-1.101333l-13.208,0c-0.608,0 -1.008,0.493333 -0.892,1.101333c0.116,0.606667 0.702667,1.1 1.310667,1.1" id="path256"/>
  <path fill="#2e2656" fill-rule="nonzero" d="m121.478809,145.577298l11.006667,0c0.608,0 1.006667,-0.493333 0.890667,-1.101333c-0.114667,-0.608 -0.702667,-1.1 -1.309333,-1.1l-11.008,0c-0.608,0 -1.006667,0.492 -0.890667,1.1c0.116,0.608 0.702667,1.101333 1.310667,1.101333" id="path258"/>
  <path fill="#6a58a1" fill-rule="nonzero" d="m175.217475,143.375965l-5.726667,0c-0.608,0 -1.008,0.492 -0.892,1.1c0.116,0.608 0.702667,1.101333 1.310667,1.101333l5.728,0c0.608,0 1.006667,-0.493333 0.890667,-1.101333c-0.116,-0.608 -0.702667,-1.1 -1.310667,-1.1" id="path260"/>
  <path fill="#6081ca" fill-rule="nonzero" d="m163.305475,145.577298l2.201333,0c0.608,0 1.006667,-0.493333 0.892,-1.101333c-0.116,-0.608 -0.702667,-1.1 -1.310667,-1.1l-2.201333,0c-0.608,0 -1.008,0.492 -0.892,1.1c0.116,0.608 0.702667,1.101333 1.310667,1.101333" id="path262"/>
  <path fill="#6a58a1" fill-rule="nonzero" d="m136.888142,145.577298l22.014666,0c0.608,0 1.006667,-0.493333 0.890667,-1.101333c-0.116,-0.608 -0.702667,-1.1 -1.310667,-1.1l-22.014666,0c-0.606667,0 -1.006667,0.492 -0.890667,1.1c0.116,0.608 0.702667,1.101333 1.310667,1.101333" id="path264"/>
  <path fill="#6a58a1" fill-rule="nonzero" d="m122.521476,151.057298c0.116,0.608 0.704,1.101333 1.310667,1.101333l24.216,0c0.608,0 1.006667,-0.493333 0.892,-1.101333c-0.116,-0.608 -0.704,-1.1 -1.310667,-1.1l-24.216,0c-0.608,0 -1.006667,0.492 -0.892,1.1" id="path266"/>
  <path fill="#6a58a1" fill-rule="nonzero" d="m178.658808,151.057298c-0.116,-0.608 -0.702667,-1.1 -1.310667,-1.1l-25.316,0c-0.608,0 -1.006667,0.492 -0.890667,1.1c0.116,0.608 0.702667,1.101333 1.310667,1.101333l25.316,0c0.608,0 1.006667,-0.493333 0.890667,-1.101333" id="path268"/>
  <path fill="#6852ad" fill-rule="nonzero" d="m168.905475,157.639964c-0.116,-0.608 -0.701333,-1.1 -1.310667,-1.1l-2.201333,0c-0.606667,0 -1.006667,0.492 -0.890667,1.1c0.116,0.608 0.702667,1.101333 1.310667,1.101333l2.201333,0c0.608,0 1.006667,-0.493333 0.890667,-1.101333" id="path270"/>
  <path fill="#6081ca" fill-rule="nonzero" d="m139.396142,158.741298l22.014666,0c0.606667,0 1.006667,-0.493333 0.890667,-1.101333c-0.116,-0.608 -0.702667,-1.1 -1.310667,-1.1l-22.014666,0c-0.606667,0 -1.006667,0.492 -0.890667,1.1c0.116,0.608 0.702667,1.101333 1.310667,1.101333" id="path272"/>
  <path fill="#6a58a1" fill-rule="nonzero" d="m123.985476,158.741298l11.008,0c0.606667,0 1.006667,-0.493333 0.890667,-1.101333c-0.116,-0.608 -0.702667,-1.1 -1.310667,-1.1l-11.006667,0c-0.608,0 -1.006667,0.492 -0.890667,1.1c0.114667,0.608 0.701333,1.101333 1.309333,1.101333" id="path274"/>
  <path fill="#6852ad" fill-rule="nonzero" d="m172.417475,158.741298l6.604,0c0.608,0 1.008,-0.493333 0.892,-1.101333c-0.116,-0.608 -0.702667,-1.1 -1.310667,-1.1l-6.604,0c-0.608,0 -1.008,0.492 -0.892,1.1c0.116,0.608 0.702667,1.101333 1.310667,1.101333" id="path276"/>
  <path fill="#6852ad" fill-rule="nonzero" d="m138.448142,165.322631c0.608,0 1.006667,-0.492 0.892,-1.101333c-0.116,-0.608 -0.704,-1.1 -1.310667,-1.1l-13.209333,0c-0.608,0 -1.006667,0.492 -0.890667,1.1c0.114667,0.609333 0.702667,1.101333 1.309333,1.101333l13.209333,0" id="path278"/>
  <path fill="#6081ca" fill-rule="nonzero" d="m169.268142,165.322631l2.201333,0c0.608,0 1.008,-0.492 0.892,-1.101333c-0.116,-0.608 -0.702667,-1.1 -1.310667,-1.1l-2.201333,0c-0.608,0 -1.006667,0.492 -0.892,1.1c0.116,0.609333 0.702667,1.101333 1.310667,1.101333" id="path280"/>
  <path fill="#6a58a1" fill-rule="nonzero" d="m142.850809,165.322631l22.014666,0c0.608,0 1.006667,-0.492 0.892,-1.101333c-0.116,-0.608 -0.702667,-1.1 -1.310667,-1.1l-22.014666,0c-0.608,0 -1.006667,0.492 -0.892,1.1c0.116,0.609333 0.702667,1.101333 1.310667,1.101333" id="path282"/>
  <path fill="#6a58a1" fill-rule="nonzero" d="m175.872142,165.322631l4.802667,0c0.608,0 1.006667,-0.492 0.892,-1.101333c-0.116,-0.608 -0.702667,-1.1 -1.310667,-1.1l-4.802667,0c-0.608,0 -1.006667,0.492 -0.890667,1.1c0.114667,0.609333 0.701333,1.101333 1.309333,1.101333" id="path284"/>
  <path fill="#6081ca" fill-rule="nonzero" d="m181.660142,169.702631l-0.725333,0c-0.608,0 -1.006667,0.493333 -0.890667,1.101333c0.114667,0.608 0.702667,1.1 1.309333,1.1l0.726667,0c0.608,0 1.006667,-0.492 0.890667,-1.1c-0.116,-0.608 -0.702667,-1.101333 -1.310667,-1.101333" id="path286"/>
  <path fill="#2e2656" fill-rule="nonzero" d="m151.390809,169.702631l-24.216,0c-0.608,0 -1.006667,0.493333 -0.890667,1.101333c0.116,0.608 0.701333,1.1 1.310667,1.1l24.216,0c0.606667,0 1.005333,-0.492 0.890667,-1.1c-0.116,-0.608 -0.702667,-1.101333 -1.310667,-1.101333" id="path288"/>
  <path fill="#6a58a1" fill-rule="nonzero" d="m177.808142,169.702631l-22.014666,0c-0.608,0 -1.006667,0.493333 -0.890667,1.101333c0.116,0.608 0.702667,1.1 1.309333,1.1l22.016,0c0.606667,0 1.005333,-0.492 0.890667,-1.1c-0.116,-0.608 -0.702667,-1.101333 -1.310667,-1.101333" id="path290"/>
  <path fill="#6081ca" fill-rule="nonzero" d="m47.516543,169.702631l-3.302133,0c-0.607733,0 -1.006267,0.493333 -0.891067,1.101333c0.116133,0.608 0.703067,1.1 1.3104,1.1l3.302133,0c0.608267,0 1.0072,-0.492 0.891067,-1.1c-0.1156,-0.608 -0.702133,-1.101333 -1.3104,-1.101333" id="path292"/>
  <path fill="#6081ca" fill-rule="nonzero" d="m45.65041,177.238631l2.201067,0c0.607733,0 1.006667,-0.493333 0.891067,-1.101333c-0.116133,-0.608 -0.702533,-1.1 -1.3104,-1.1l-2.2016,0c-0.607733,0 -1.006667,0.492 -0.891067,1.1c0.116133,0.608 0.702533,1.101333 1.310933,1.101333" id="path294"/>
  <path fill="#2e2656" fill-rule="nonzero" d="m67.664143,177.238631l22.014666,0c0.608,0 1.006667,-0.493333 0.890667,-1.101333c-0.114667,-0.608 -0.701333,-1.1 -1.309333,-1.1l-22.014666,0c-0.608,0 -1.006667,0.492 -0.892,1.1c0.116,0.608 0.704,1.101333 1.310667,1.101333" id="path296"/>
  <path fill="#6852ad" fill-rule="nonzero" d="m94.081476,177.238631l2.202667,0c0.606667,0 1.005333,-0.493333 0.890667,-1.101333c-0.116,-0.608 -0.702667,-1.1 -1.310667,-1.1l-2.201333,0c-0.608,0 -1.006667,0.492 -0.892,1.1c0.116,0.608 0.704,1.101333 1.310667,1.101333" id="path298"/>
  <path fill="#6852ad" fill-rule="nonzero" d="m116.096142,177.238631l7.22,0c0.609333,0 1.006667,-0.493333 0.890667,-1.101333c-0.114667,-0.608 -0.701333,-1.1 -1.309333,-1.1l-7.22,0c-0.608,0 -1.006667,0.492 -0.890667,1.1c0.114667,0.608 0.701333,1.101333 1.309333,1.101333" id="path300"/>
  <path fill="#6a58a1" fill-rule="nonzero" d="m100.686809,177.238631l11.006667,0c0.608,0 1.006667,-0.493333 0.890667,-1.101333c-0.116,-0.608 -0.702667,-1.1 -1.310667,-1.1l-11.006667,0c-0.608,0 -1.006667,0.492 -0.890667,1.1c0.116,0.608 0.702667,1.101333 1.310667,1.101333" id="path302"/>
  <path fill="#6a58a1" fill-rule="nonzero" d="m52.25401,177.238631l11.007333,0c0.608267,0 1.007333,-0.493333 0.8912,-1.101333c-0.115733,-0.608 -0.702133,-1.1 -1.310533,-1.1l-11.006667,0c-0.6084,0 -1.0068,0.492 -0.891733,1.1c0.116133,0.608 0.7032,1.101333 1.3104,1.101333" id="path304"/>
  <path fill="#6a58a1" fill-rule="nonzero" d="m79.716143,182.719964c-0.116,-0.608 -0.702667,-1.101333 -1.310667,-1.101333l-24.215466,0c-0.6084,0 -1.007333,0.493333 -0.891733,1.101333c0.116133,0.608 0.702667,1.1 1.310933,1.1l24.214933,0c0.608,0 1.008,-0.492 0.892,-1.1" id="path306"/>
  <path fill="#f1469c" fill-rule="nonzero" d="m49.78681,181.618631l-3.302,0c-0.6084,0 -1.007333,0.493333 -0.8912,1.101333c0.1156,0.608 0.702667,1.1 1.3104,1.1l3.302133,0c0.607733,0 1.0068,-0.492 0.891067,-1.1c-0.1156,-0.608 -0.703067,-1.101333 -1.3104,-1.101333" id="path308"/>
  <path fill="#6a58a1" fill-rule="nonzero" d="m104.822809,181.618631l-22.014666,0c-0.608,0 -1.006667,0.493333 -0.890667,1.101333c0.116,0.608 0.702667,1.1 1.310667,1.1l22.014666,0c0.606667,0 1.006667,-0.492 0.890667,-1.1c-0.116,-0.608 -0.702667,-1.101333 -1.310667,-1.101333" id="path310"/>
  <path fill="#6852ad" fill-rule="nonzero" d="m112.946809,183.819964c0.608,0 1.008,-0.492 0.892,-1.1c-0.116,-0.608 -0.702667,-1.101333 -1.310667,-1.101333l-3.302667,0c-0.606667,0 -1.006667,0.493333 -0.890667,1.101333c0.116,0.608 0.702667,1.1 1.310667,1.1l3.301333,0" id="path312"/>
  <path fill="#6a58a1" fill-rule="nonzero" d="m124.150809,181.618631l-7.22,0c-0.608,0 -1.006667,0.493333 -0.890667,1.101333c0.114667,0.608 0.702667,1.1 1.309333,1.1l7.221333,0c0.606667,0 1.006667,-0.492 0.890667,-1.1c-0.116,-0.608 -0.702667,-1.101333 -1.310667,-1.101333" id="path314"/>
  <path fill="#6852ad" fill-rule="nonzero" d="m98.790809,190.402631c0.608,0 1.006667,-0.493333 0.890667,-1.101333c-0.114667,-0.608 -0.701333,-1.101333 -1.309333,-1.101333l-2.201333,0c-0.608,0 -1.008,0.493333 -0.892,1.101333c0.116,0.608 0.702667,1.101333 1.310667,1.101333l2.201333,0" id="path316"/>
  <path fill="#f6f23e" fill-rule="nonzero" d="m48.158143,190.402631l2.201067,0c0.607867,0 1.007333,-0.493333 0.8912,-1.101333c-0.1156,-0.608 -0.702667,-1.101333 -1.3104,-1.101333l-2.201067,0c-0.6084,0 -1.007333,0.493333 -0.891733,1.101333c0.116267,0.608 0.702667,1.101333 1.310933,1.101333" id="path318"/>
  <path fill="#6081ca" fill-rule="nonzero" d="m101.882809,189.301297c0.116,0.608 0.704,1.101333 1.310667,1.101333l11.008,0c0.608,0 1.006667,-0.493333 0.890667,-1.101333c-0.116,-0.608 -0.702667,-1.101333 -1.310667,-1.101333l-11.006667,0c-0.608,0 -1.006667,0.493333 -0.892,1.101333" id="path320"/>
  <path fill="#6081ca" fill-rule="nonzero" d="m54.76241,190.402631l11.007067,0c0.608,0 1.006667,-0.493333 0.890667,-1.101333c-0.116,-0.608 -0.702667,-1.101333 -1.310667,-1.101333l-11.006933,0c-0.607733,0 -1.006667,0.493333 -0.891067,1.101333c0.116133,0.608 0.702533,1.101333 1.310933,1.101333" id="path322"/>
  <path fill="#6081ca" fill-rule="nonzero" d="m125.404142,188.199964l-7.22,0c-0.608,0 -1.006667,0.493333 -0.890667,1.101333c0.116,0.608 0.702667,1.101333 1.310667,1.101333l7.22,0c0.608,0 1.006667,-0.493333 0.890667,-1.101333c-0.116,-0.608 -0.702667,-1.101333 -1.310667,-1.101333" id="path324"/>
  <path fill="#6852ad" fill-rule="nonzero" d="m70.172143,190.402631l22.014666,0c0.608,0 1.006667,-0.493333 0.890667,-1.101333c-0.116,-0.608 -0.702667,-1.101333 -1.310667,-1.101333l-22.013333,0c-0.608,0 -1.008,0.493333 -0.892,1.101333c0.116,0.608 0.702667,1.101333 1.310667,1.101333" id="path326"/>
  <path fill="#2e2656" fill-rule="nonzero" d="m142.920142,177.238631l22.013333,0c0.608,0 1.008,-0.493333 0.892,-1.101333c-0.116,-0.608 -0.702667,-1.1 -1.310667,-1.1l-22.014666,0c-0.608,0 -1.006667,0.492 -0.890667,1.1c0.116,0.608 0.702667,1.101333 1.310667,1.101333" id="path328"/>
  <path fill="#6852ad" fill-rule="nonzero" d="m169.337475,177.238631l2.201333,0c0.608,0 1.006667,-0.493333 0.890667,-1.101333c-0.116,-0.608 -0.702667,-1.1 -1.310667,-1.1l-2.201333,0c-0.608,0 -1.006667,0.492 -0.890667,1.1c0.116,0.608 0.702667,1.101333 1.310667,1.101333" id="path330"/>
  <path fill="#6a58a1" fill-rule="nonzero" d="m175.941475,177.238631l7.154667,0c0.608,0 1.006667,-0.493333 0.890667,-1.101333c-0.114667,-0.608 -0.702667,-1.1 -1.309333,-1.1l-7.156,0c-0.608,0 -1.006667,0.492 -0.890667,1.1c0.116,0.608 0.702667,1.101333 1.310667,1.101333" id="path332"/>
  <path fill="#6a58a1" fill-rule="nonzero" d="m127.509476,177.238631l11.006667,0c0.608,0 1.008,-0.493333 0.892,-1.101333c-0.116,-0.608 -0.702667,-1.1 -1.310667,-1.1l-11.006667,0c-0.608,0 -1.008,0.492 -0.892,1.1c0.116,0.608 0.702667,1.101333 1.310667,1.101333" id="path334"/>
  <path fill="#6a58a1" fill-rule="nonzero" d="m153.694809,182.719964c-0.116,-0.608 -0.702667,-1.101333 -1.310667,-1.101333l-24.216,0c-0.606667,0 -1.006667,0.493333 -0.890667,1.101333c0.116,0.608 0.702667,1.1 1.310667,1.1l24.216,0c0.608,0 1.006667,-0.492 0.890667,-1.1" id="path336"/>
  <path fill="#6a58a1" fill-rule="nonzero" d="m183.778808,181.618631l-26.990666,0c-0.609333,0 -1.008,0.493333 -0.892,1.101333c0.116,0.608 0.702667,1.1 1.310667,1.1l26.992,0c0.608,0 1.006667,-0.492 0.890667,-1.1c-0.116,-0.608 -0.702667,-1.101333 -1.310667,-1.101333" id="path338"/>
  <path fill="#6852ad" fill-rule="nonzero" d="m174.045475,190.402631c0.608,0 1.008,-0.493333 0.892,-1.101333c-0.116,-0.608 -0.702667,-1.101333 -1.310667,-1.101333l-2.201333,0c-0.608,0 -1.006667,0.493333 -0.890667,1.101333c0.114667,0.608 0.701333,1.101333 1.309333,1.101333l2.201333,0" id="path340"/>
  <path fill="#6081ca" fill-rule="nonzero" d="m177.138808,189.301297c0.116,0.608 0.702667,1.101333 1.310667,1.101333l7.154667,0c0.606667,0 1.006667,-0.493333 0.890667,-1.101333c-0.116,-0.608 -0.702667,-1.101333 -1.310667,-1.101333l-7.154667,0c-0.608,0 -1.006667,0.493333 -0.890667,1.101333" id="path342"/>
  <path fill="#6081ca" fill-rule="nonzero" d="m130.017476,190.402631l11.006667,0c0.608,0 1.006667,-0.493333 0.890667,-1.101333c-0.114667,-0.608 -0.702667,-1.101333 -1.309333,-1.101333l-11.008,0c-0.608,0 -1.006667,0.493333 -0.890667,1.101333c0.116,0.608 0.702667,1.101333 1.310667,1.101333" id="path344"/>
  <path fill="#6852ad" fill-rule="nonzero" d="m145.428142,190.402631l22.013333,0c0.608,0 1.006667,-0.493333 0.892,-1.101333c-0.116,-0.608 -0.704,-1.101333 -1.310667,-1.101333l-22.014666,0c-0.608,0 -1.006667,0.493333 -0.890667,1.101333c0.116,0.608 0.701333,1.101333 1.310667,1.101333" id="path346"/>
  <path fill="#545ab2" fill-rule="nonzero" d="m488.638805,276.27063l-446.588395,0c-1.4636,0 -2.649467,-1.186667 -2.649467,-2.649333c0,-1.464 1.185867,-2.650667 2.649467,-2.650667l446.588395,0c1.462667,0 2.649333,1.186667 2.649333,2.650667c0,1.462667 -1.186667,2.649333 -2.649333,2.649333" id="path348"/>
  <path fill="#202955" fill-rule="nonzero" d="m519.258805,272.181297l-507.829195,0c-1.4636,0 -2.65,-1.186667 -2.65,-2.650667l0,-8.264c0,-1.462667 1.1864,-2.649333 2.65,-2.649333l507.829195,0c1.462667,0 2.650667,1.186667 2.650667,2.649333l0,8.264c0,1.464 -1.188,2.650667 -2.650667,2.650667" id="path350"/>
  <path fill="#ffd2a5" fill-rule="nonzero" d="m308.48014,234.73463c0,0 -10.749333,-3.548 -17.166666,-5.633333c-6.417333,-2.085333 -16.685333,1.764 -24.065333,7.22c0,0 -5.133333,4.330667 -3.369333,5.774667c1.765333,1.444 10.267999,-5.454667 17.647999,-6.257334c0,0 -17.166666,10.910667 -15.401333,14.76c0.586667,1.282667 2.725333,0.994667 5.310667,0.046667c-0.389334,0.705333 -0.508,1.316 -0.146667,1.718666c0.912,1.012 5.864,-0.778666 10.358667,-2.705333c-0.873334,0.637333 -1.445334,1.292 -1.404,1.902667c0.16,2.406666 13.957333,-3.849334 13.957333,-3.849334c0,0 8.824,5.774667 14.92,2.085334c0,0 2.406666,-10.072 -0.641334,-15.062667" id="path352"/>
  <path fill="#a89fd7" fill-rule="nonzero" d="m302.650807,251.721297l-195.455998,0c-1.608,0 -2.912,1.305333 -2.912,2.914667l0,1.068c0,1.608 1.304,2.913333 2.912,2.913333l195.455998,0c1.610667,0 2.914667,-1.305333 2.914667,-2.913333l0,-1.068c0,-1.609333 -1.304,-2.914667 -2.914667,-2.914667" id="path354"/>
  <path fill="#7172c1" fill-rule="nonzero" d="m245.265474,151.815964l19.990666,94.639999c0.614667,2.905333 -1.246667,5.265333 -4.14,5.265333l-153.893332,0c-2.906667,0 -5.766667,-2.36 -6.38,-5.265333l-19.990666,-94.639999c-0.613333,-2.906667 1.250667,-5.253333 4.157333,-5.253333l153.893332,0c2.893333,0 5.749333,2.346667 6.362667,5.253333" id="path356"/>
  <path fill="#9994d2" fill-rule="nonzero" d="m240.426808,151.815964l19.989333,94.639999c0.614667,2.905333 -1.234667,5.265333 -4.14,5.265333l-149.053332,0c-2.906667,0 -5.766667,-2.36 -6.38,-5.265333l-19.990666,-94.639999c-0.613333,-2.906667 1.250667,-5.253333 4.157333,-5.253333l149.053332,0c2.906667,0 5.749333,2.346667 6.364,5.253333" id="path358"/>
  <path fill="#ffffff" fill-rule="nonzero" d="m165.821475,193.365297c-3.206667,0 -5.816,2.609333 -5.816,5.817333c0,3.206667 2.609333,5.816 5.816,5.816c3.208,0 5.817333,-2.609333 5.817333,-5.816c0,-3.208 -2.609333,-5.817333 -5.817333,-5.817333zm0,15.633333c-5.413333,0 -9.816,-4.402667 -9.816,-9.816c0,-5.413333 4.402667,-9.817333 9.816,-9.817333c5.413333,0 9.817333,4.404 9.817333,9.817333c0,5.413333 -4.404,9.816 -9.817333,9.816" id="path360"/>
 </g>
</svg>